<?xml version="1.0" standalone="no"?>
<!DOCTYPE svg PUBLIC "-//W3C//DTD SVG 20010904//EN"
 "http://www.w3.org/TR/2001/REC-SVG-20010904/DTD/svg10.dtd">
<svg version="1.0" xmlns="http://www.w3.org/2000/svg"
 width="300.000000pt" height="300.000000pt" viewBox="0 0 300.000000 300.000000"
 preserveAspectRatio="xMidYMid meet">
<metadata>
Created by potrace 1.10, written by Peter Selinger 2001-2011
</metadata>
<g transform="translate(0.000000,300.000000) scale(0.100000,-0.100000)"
fill="#000000" stroke="none">
<path fill='pink' d="M1345 2590 c-33 -10 -142 -117 -372 -365 -317 -341 -312 -336 -318
-409 -2 -22 -7 -39 -11 -36 -5 3 -8 14 -7 25 2 13 -6 6 -22 -19 -27 -44 -24
-69 5 -34 16 20 19 21 25 6 4 -10 15 -15 26 -13 16 3 19 -1 17 -17 -2 -12 3
-23 12 -25 13 -4 13 -3 0 6 -12 8 -10 12 10 19 21 8 26 6 32 -10 4 -11 12 -17
17 -14 5 3 12 -2 15 -11 6 -15 8 -15 17 -3 8 12 10 10 5 -9 -4 -18 -2 -21 7
-12 15 15 30 14 21 -1 -4 -7 -4 -10 1 -6 4 4 14 0 22 -10 8 -9 12 -11 8 -4 -7
14 4 16 25 2 12 -8 13 -11 1 -19 -9 -6 -6 -9 13 -10 51 -3 56 -4 56 -18 0 -8
4 -12 9 -8 5 3 12 1 16 -5 4 -6 11 -8 16 -5 5 4 9 1 9 -4 0 -6 7 -11 16 -11 8
0 13 -4 9 -9 -3 -5 0 -13 6 -17 8 -5 9 -3 4 6 -6 10 -4 12 9 7 10 -4 25 -7 34
-7 14 0 15 -2 2 -9 -8 -6 -17 -8 -21 -5 -4 2 -10 0 -14 -5 -3 -5 -15 -8 -26
-6 -17 4 -19 2 -9 -11 10 -11 16 -12 27 -2 8 7 23 13 34 15 10 1 22 3 26 4 21
4 44 -2 39 -10 -3 -4 2 -8 12 -8 34 0 43 -3 37 -12 -3 -6 3 -8 13 -6 10 2 25
-1 33 -7 11 -7 9 -8 -6 -3 -16 5 -18 4 -7 -6 9 -10 15 -10 23 -2 12 12 34 4
72 -26 11 -10 17 -10 17 -3 0 7 5 12 11 12 5 0 8 -4 5 -8 -2 -4 4 -13 14 -20
14 -9 21 -8 30 3 10 12 16 12 34 3 11 -7 35 -14 51 -15 17 -2 40 -4 52 -5 12
-1 19 -6 17 -10 -10 -17 26 -7 36 10 11 16 11 16 6 0 -6 -19 9 -25 19 -8 3 6
18 7 32 4 16 -4 28 -2 34 7 13 21 11 26 -13 24 -13 -2 -22 -8 -20 -14 1 -7 -2
-10 -6 -7 -5 3 -7 16 -5 29 3 14 -2 29 -13 38 -11 8 -15 9 -10 2 5 -9 2 -11
-8 -7 -9 3 -13 10 -10 15 3 5 -2 9 -11 9 -9 0 -13 -4 -10 -10 3 -5 0 -10 -9
-10 -8 0 -17 6 -19 13 -3 6 -6 7 -6 1 -1 -6 -14 -9 -31 -6 -16 2 -28 8 -25 12
2 4 -7 5 -22 2 -22 -4 -25 -2 -20 12 4 9 3 15 -2 11 -5 -3 -11 -2 -14 2 -2 5
-2 2 -1 -4 2 -7 -1 -13 -6 -13 -6 0 -10 4 -10 8 0 4 -20 8 -45 9 -36 1 -45 -2
-45 -15 0 -13 2 -14 9 -4 7 11 11 11 22 -1 8 -7 20 -12 28 -9 8 3 11 0 7 -6
-4 -7 1 -9 15 -7 12 3 27 1 33 -2 11 -7 32 -11 81 -15 17 -2 36 -9 43 -16 8
-7 19 -9 25 -5 22 14 48 10 45 -6 -4 -22 -65 -22 -158 0 -41 10 -77 18 -80 19
-20 4 -88 22 -100 27 -8 3 -22 7 -30 7 -8 1 -14 6 -13 12 1 7 -6 10 -17 7 -11
-3 -25 -3 -32 0 -7 2 -15 4 -18 4 -3 0 -24 10 -46 21 -23 12 -44 18 -48 15 -3
-4 -6 -1 -6 5 0 7 -3 11 -7 10 -12 -2 -181 80 -188 92 -3 5 -15 10 -26 10 -13
0 -18 4 -13 13 4 6 4 9 -1 5 -4 -4 -17 -1 -29 7 -11 8 -29 15 -39 15 -10 0
-15 5 -12 10 3 6 -5 14 -19 20 -14 5 -33 21 -42 35 -13 20 -19 23 -26 13 -8
-12 -4 18 9 66 4 15 7 16 14 5 5 -8 6 -22 3 -33 -4 -13 -3 -16 6 -11 8 5 11 4
7 -2 -7 -12 25 -53 41 -53 6 0 12 -4 14 -8 6 -17 150 -94 164 -88 9 3 14 -1
14 -11 0 -9 3 -14 6 -10 4 3 13 -1 21 -9 8 -8 19 -12 24 -9 13 8 11 32 -3 41
-7 5 -8 3 -3 -5 4 -7 -12 -1 -35 14 -30 19 -45 23 -54 16 -7 -6 -16 -8 -19 -4
-4 3 0 11 9 17 13 10 10 11 -13 10 -39 -2 -47 5 -26 23 16 13 16 13 -5 3 -20
-10 -26 -8 -39 7 -8 10 -12 12 -8 6 3 -7 1 -13 -4 -13 -6 0 -11 7 -11 15 0 8
-6 14 -12 12 -7 -1 -12 6 -12 15 1 10 -2 16 -6 13 -11 -7 -19 30 -10 45 12 19
0 42 -20 37 -9 -2 -17 1 -17 9 0 7 3 11 7 9 4 -2 12 7 19 21 6 14 16 22 21 19
16 -10 40 14 33 32 -5 13 -2 15 11 10 14 -6 17 -3 12 9 -6 15 -4 15 11 3 11
-9 14 -10 9 -1 -4 7 -2 12 6 12 9 0 10 2 1 8 -7 5 7 25 43 61 47 46 53 50 44
26 -6 -15 -8 -30 -5 -33 3 -3 5 0 5 7 0 7 4 10 9 6 5 -3 13 0 17 6 4 8 3 9 -4
5 -19 -11 -14 5 6 20 16 12 15 13 -8 23 -14 5 -18 10 -10 10 9 1 25 -6 37 -14
14 -10 24 -12 28 -5 3 5 -1 10 -9 10 -9 0 -16 5 -16 11 0 6 9 8 23 4 20 -5 20
-5 -3 9 -22 13 -23 15 -8 21 10 4 16 10 14 14 -4 7 26 37 34 34 3 -2 5 0 5 5
0 12 16 32 25 32 5 0 7 -7 4 -15 -9 -23 4 -18 17 6 9 17 8 20 -2 14 -9 -6 -11
-3 -6 9 4 10 7 19 7 22 0 2 7 1 15 -2 8 -4 12 -10 9 -15 -3 -5 1 -9 8 -9 8 -1
6 -6 -6 -15 -11 -8 -15 -15 -9 -15 6 0 16 7 23 15 21 25 32 17 13 -9 -10 -13
-20 -23 -23 -21 -3 1 -14 -2 -25 -6 -18 -9 -18 -9 2 -5 13 2 26 0 29 -5 3 -5
11 -9 17 -9 8 0 7 3 -2 9 -11 7 -9 13 9 31 12 12 27 19 34 17 7 -3 13 1 13 9
0 9 -7 12 -17 9 -11 -3 -17 0 -17 10 0 9 6 14 12 11 6 -2 12 2 12 9 0 10 -5
11 -19 4 -10 -6 -16 -14 -13 -19 10 -16 -20 -17 -32 -1 -14 20 2 55 23 47 7
-3 13 -2 11 2 -4 13 30 52 38 44 5 -4 5 -2 2 4 -8 15 31 56 45 48 7 -4 8 -2 4
4 -4 7 -1 12 9 12 9 0 14 4 11 9 -4 5 10 25 29 45 35 36 52 47 39 24 -4 -7 -4
-10 1 -6 4 4 15 2 24 -5 14 -11 14 -10 2 6 -13 16 -13 20 0 28 20 13 105 6
102 -8 -3 -13 27 -25 48 -21 8 2 13 -2 12 -8 -1 -7 5 -10 16 -7 11 3 22 -4 29
-19 10 -18 11 -18 7 -3 -5 18 -4 18 14 -2 20 -24 38 -32 25 -12 -3 6 5 3 20
-6 14 -10 26 -25 26 -34 0 -11 3 -12 8 -4 9 14 23 12 72 -9 19 -8 53 -22 75
-30 23 -8 39 -20 37 -28 -3 -11 0 -11 12 0 11 8 16 9 16 1 0 -6 6 -10 13 -9 6
2 11 -2 10 -9 -2 -8 4 -10 14 -6 11 5 14 3 8 -6 -6 -10 -3 -11 12 -3 14 8 27
7 47 -4 16 -8 37 -14 48 -14 10 0 17 -3 14 -8 -2 -4 10 -8 27 -9 17 0 33 -6
35 -12 2 -6 8 -8 13 -5 13 8 69 -15 69 -28 0 -6 6 -5 14 1 11 9 20 9 34 2 11
-6 22 -7 26 -4 5 6 10 -12 7 -29 0 -4 6 -5 14 -1 12 4 13 8 3 20 -6 8 5 5 25
-7 20 -12 37 -25 37 -29 0 -14 -59 -63 -68 -57 -6 3 -13 -1 -16 -10 -5 -12 -2
-15 11 -10 12 4 10 0 -4 -10 -13 -9 -23 -23 -23 -31 0 -8 -4 -12 -9 -9 -5 3
-12 -6 -15 -19 -4 -14 -11 -23 -16 -20 -6 3 -10 0 -10 -8 0 -16 -27 -30 -40
-22 -5 3 -7 -4 -5 -15 2 -13 -4 -25 -16 -33 -10 -6 -19 -17 -19 -24 0 -6 -10
-19 -22 -27 -12 -9 -18 -16 -13 -17 6 0 2 -3 -7 -7 -9 -4 -28 -23 -41 -42 -13
-19 -29 -34 -36 -32 -7 1 -9 -2 -5 -9 3 -6 -7 -23 -24 -38 -16 -14 -35 -36
-41 -49 -7 -12 -16 -20 -22 -17 -5 4 -8 3 -7 -2 3 -8 -5 -13 -23 -13 -5 0 -8
4 -5 8 3 5 -2 9 -10 9 -11 0 -10 -5 6 -22 21 -22 27 -41 10 -30 -5 3 -10 2
-10 -3 0 -5 -9 -12 -19 -15 -12 -3 -19 -12 -17 -23 4 -25 10 -22 54 27 20 24
44 50 53 60 9 9 52 59 95 110 44 52 86 101 94 110 8 9 44 51 80 94 36 43 86
101 112 128 42 47 46 49 45 25 -1 -16 -7 -24 -15 -20 -7 2 -12 0 -10 -6 2 -5
-8 -21 -22 -35 -97 -97 -270 -305 -270 -324 0 -9 17 7 38 36 20 28 42 49 49
46 7 -2 10 2 7 8 -2 7 12 32 33 56 34 40 38 42 50 25 7 -10 13 -13 13 -7 0 7
-4 15 -10 18 -15 9 -12 25 5 25 8 0 15 4 15 9 0 10 49 67 98 113 17 17 32 39
32 49 0 10 5 21 10 24 16 10 -29 65 -65 80 -17 8 -76 25 -131 39 -199 51 -373
115 -619 229 -129 60 -173 71 -220 57z m-611 -735 c-4 -8 -10 -12 -15 -9 -14
8 -10 24 6 24 9 0 12 -6 9 -15z m-28 -108 c6 -9 5 -9 -7 0 -14 11 -19 13 -40
13 -5 0 -7 5 -4 10 7 12 39 -3 51 -23z m688 -233 c3 -8 2 -12 -4 -9 -6 3 -10
10 -10 16 0 14 7 11 14 -7z m-14 -74 c0 -5 -2 -10 -4 -10 -3 0 -8 5 -11 10 -3
6 -1 10 4 10 6 0 11 -4 11 -10z"/>
<path fill='pink' d="M1383 2537 c-2 -4 -1 -7 4 -6 22 4 23 -3 2 -22 -22 -19 -21 -19 9 1
18 12 36 19 39 16 4 -3 1 -6 -6 -6 -7 0 -9 -5 -5 -11 9 -14 24 9 17 26 -5 14
-52 15 -60 2z"/>
<path fill='pink' d="M1395 2490 c-3 -6 1 -7 9 -4 18 7 21 14 7 14 -6 0 -13 -4 -16 -10z"/>
<path fill='pink' d="M1335 2457 c-13 -10 -15 -16 -6 -21 7 -5 15 -5 18 -2 4 3 0 6 -8 6
-8 1 -3 7 11 15 14 8 20 14 14 15 -5 0 -18 -6 -29 -13z"/>
<path fill='pink' d="M1415 2431 c-3 -5 -2 -12 3 -15 5 -3 9 1 9 9 0 17 -3 19 -12 6z"/>
<path fill='pink' d="M1351 2412 c-7 -13 -6 -19 2 -19 7 0 13 9 13 19 0 10 -1 18 -3 18 -1
0 -7 -8 -12 -18z"/>
<path fill='pink' d="M1222 2406 c7 -8 15 -12 17 -11 5 6 -10 25 -20 25 -5 0 -4 -6 3 -14z"/>
<path fill='pink' d="M1318 2413 c7 -3 16 -2 19 1 4 3 -2 6 -13 5 -11 0 -14 -3 -6 -6z"/>
<path fill='pink' d="M1265 2400 c-3 -5 -1 -10 4 -10 6 0 11 5 11 10 0 6 -2 10 -4 10 -3 0
-8 -4 -11 -10z"/>
<path fill='pink' d="M1431 2392 c-17 -31 -13 -40 5 -14 9 13 14 26 11 29 -3 2 -10 -4 -16
-15z"/>
<path fill='pink' d="M1257 2349 c7 -7 15 -10 18 -7 3 3 -2 9 -12 12 -14 6 -15 5 -6 -5z"/>
<path fill='pink' d="M1405 2339 c-4 -6 -5 -12 -2 -15 2 -3 7 2 10 11 7 17 1 20 -8 4z"/>
<path fill='pink' d="M1327 2329 c7 -7 15 -10 18 -7 3 3 -2 9 -12 12 -14 6 -15 5 -6 -5z"/>
<path fill='pink' d="M1273 2323 c4 -6 1 -14 -5 -17 -7 -2 -3 -4 9 -2 12 1 26 6 30 12 5 5
4 6 -1 2 -5 -4 -16 -2 -24 5 -11 8 -14 8 -9 0z"/>
<path fill='pink' d="M1235 2310 c-3 -5 -1 -10 4 -10 6 0 11 5 11 10 0 6 -2 10 -4 10 -3 0
-8 -4 -11 -10z"/>
<path fill='pink' d="M1458 2313 c7 -3 16 -2 19 1 4 3 -2 6 -13 5 -11 0 -14 -3 -6 -6z"/>
<path fill='pink' d="M1320 2290 c-9 -16 -8 -18 5 -14 8 4 15 12 15 20 0 20 -7 17 -20 -6z"/>
<path fill='pink' d="M1200 2281 c0 -6 4 -13 10 -16 6 -3 7 1 4 9 -7 18 -14 21 -14 7z"/>
<path fill='pink' d="M1391 2276 c-9 -11 -9 -16 1 -22 7 -4 10 -4 6 1 -4 4 -3 14 3 22 6 7
9 13 6 13 -2 0 -10 -6 -16 -14z"/>
<path fill='pink' d="M1254 2258 c-4 -7 -4 -10 1 -6 4 4 13 3 20 -2 8 -7 12 -5 12 5 0 18
-23 20 -33 3z"/>
<path fill='pink' d="M1300 2256 c0 -2 7 -7 16 -10 8 -3 12 -2 9 4 -6 10 -25 14 -25 6z"/>
<path fill='pink' d="M1036 2215 c-20 -15 -33 -50 -15 -39 5 3 7 9 4 14 -8 13 17 18 43 9
13 -5 22 -5 22 1 0 6 -9 10 -21 10 -11 0 -17 5 -14 10 8 13 4 12 -19 -5z"/>
<path fill='pink' d="M1203 2200 c-1 -11 2 -20 7 -20 4 0 7 7 6 15 -3 23 -12 26 -13 5z"/>
<path fill='pink' d="M1340 2210 c0 -5 7 -7 15 -4 8 4 15 8 15 10 0 2 -7 4 -15 4 -8 0 -15
-4 -15 -10z"/>
<path fill='pink' d="M1237 2199 c7 -7 15 -10 18 -7 3 3 -2 9 -12 12 -14 6 -15 5 -6 -5z"/>
<path fill='pink' d="M1798 2193 c7 -3 16 -2 19 1 4 3 -2 6 -13 5 -11 0 -14 -3 -6 -6z"/>
<path fill='pink' d="M1097 2184 c-13 -14 6 -34 27 -28 19 6 20 5 6 -12 -14 -18 -14 -18 8
0 23 20 30 32 12 21 -5 -3 -10 -1 -10 6 0 8 -4 8 -15 -1 -14 -11 -19 -7 -16
13 1 9 -4 9 -12 1z"/>
<path fill='pink' d="M1465 2170 c-3 -5 -1 -10 4 -10 6 0 11 5 11 10 0 6 -2 10 -4 10 -3 0
-8 -4 -11 -10z"/>
<path fill='pink' d="M2392 2151 c1 -16 5 -28 9 -26 20 13 31 -73 14 -107 -3 -7 0 -4 9 6
8 10 13 22 11 27 -3 4 0 11 7 15 7 4 10 4 6 0 -4 -5 2 -23 13 -42 10 -19 19
-43 19 -52 0 -10 9 -28 20 -40 12 -12 17 -22 13 -22 -4 0 -2 -4 6 -9 11 -7 10
-14 -4 -37 l-17 -29 21 25 c18 22 26 21 22 -2 0 -5 4 -8 9 -8 6 0 5 -8 -2 -19
-7 -11 -16 -17 -20 -15 -5 3 -7 2 -6 -3 7 -20 -18 -13 -29 8 -8 16 -13 18 -13
8 0 -9 8 -24 19 -33 18 -16 20 -16 40 10 11 15 21 21 21 15 0 -7 6 -9 13 -5 9
5 9 4 1 -6 -9 -9 -7 -17 8 -32 11 -11 17 -26 14 -34 -3 -9 -1 -12 4 -9 9 6 14
-8 11 -28 -1 -5 3 -6 8 -3 5 3 12 -1 15 -10 3 -8 2 -12 -4 -9 -6 3 -10 -1 -10
-10 0 -9 4 -14 8 -11 11 6 9 -25 -3 -43 -5 -9 -4 -12 2 -8 6 4 14 0 17 -9 8
-21 8 -26 -2 -20 -5 3 -7 -18 -4 -46 3 -44 0 -56 -29 -97 -18 -25 -37 -47 -41
-49 -4 -2 -8 -10 -8 -17 0 -7 -13 -24 -29 -38 -17 -14 -28 -27 -25 -29 2 -3
-7 -17 -20 -31 -13 -14 -21 -28 -19 -31 3 -3 -2 -8 -11 -12 -9 -3 -16 -10 -16
-15 0 -11 -62 -99 -70 -99 -3 0 -14 -16 -24 -35 -10 -19 -23 -32 -29 -28 -6 3
-7 1 -3 -5 4 -7 2 -12 -3 -12 -6 0 -10 -3 -9 -7 3 -8 -79 -124 -95 -134 -5 -3
-8 -10 -6 -14 2 -8 -133 -194 -168 -232 -12 -12 -20 -23 -17 -23 3 0 -5 -10
-18 -22 -13 -13 -36 -40 -51 -61 -16 -20 -33 -35 -38 -32 -5 4 -9 0 -9 -8 0
-20 -61 -47 -116 -53 -48 -6 -127 15 -228 60 -30 13 -57 22 -60 18 -3 -3 -6 0
-6 6 0 7 -10 12 -22 12 -13 1 -41 9 -63 20 -22 11 -46 19 -53 20 -7 0 -11 4
-8 9 3 5 0 8 -7 8 -23 -1 -77 16 -77 24 0 5 -7 6 -15 3 -8 -4 -15 -1 -15 6 0
6 -4 9 -8 6 -4 -2 -27 4 -51 15 -24 10 -53 21 -66 23 -12 2 -38 12 -56 22 -19
10 -36 19 -39 19 -3 1 -23 9 -45 19 -22 10 -48 19 -58 21 -9 2 -34 13 -55 24
-34 18 -153 69 -177 75 -5 2 -32 13 -60 25 -27 13 -57 24 -66 26 -9 2 -25 8
-35 14 -36 20 -99 44 -111 42 -7 -1 -18 7 -25 19 -7 11 -19 20 -26 20 -7 0
-11 4 -8 8 2 4 -4 14 -16 21 -20 12 -20 12 -1 -19 10 -18 27 -38 38 -46 27
-17 752 -319 789 -328 16 -4 64 -22 105 -40 42 -19 162 -67 266 -107 223 -87
259 -91 347 -42 64 36 81 59 735 948 52 71 56 83 51 185 l-5 96 -99 190 c-54
104 -107 206 -117 227 -11 20 -23 37 -28 37 -4 0 -6 6 -3 14 3 8 0 17 -6 21
-7 4 -10 -4 -8 -24z"/>
<path fill='pink' d="M1177 2159 c7 -7 15 -10 18 -7 3 3 -2 9 -12 12 -14 6 -15 5 -6 -5z"/>
<path fill='pink' d="M2196 2162 c-3 -5 1 -9 9 -9 8 0 12 4 9 9 -3 4 -7 8 -9 8 -2 0 -6 -4
-9 -8z"/>
<path fill='pink' d="M1066 2148 c3 -5 10 -6 15 -3 13 9 11 12 -6 12 -8 0 -12 -4 -9 -9z"/>
<path fill='pink' d="M1065 2121 c-3 -5 -2 -12 3 -15 5 -3 9 1 9 9 0 17 -3 19 -12 6z"/>
<path fill='pink' d="M1290 2121 c0 -6 4 -13 10 -16 6 -3 7 1 4 9 -7 18 -14 21 -14 7z"/>
<path fill='pink' d="M2047 2107 c-9 -23 8 -30 24 -10 8 9 9 14 2 10 -6 -4 -13 -2 -15 5
-3 8 -7 6 -11 -5z"/>
<path fill='pink' d="M2350 2095 c-6 -8 -10 -20 -7 -27 4 -8 6 -7 6 4 1 11 6 15 16 12 8
-4 15 -1 15 4 0 18 -17 22 -30 7z"/>
<path fill='pink' d="M956 2085 c-9 -23 -8 -24 13 -22 16 1 18 4 8 17 -6 8 -12 16 -13 18
-1 2 -4 -4 -8 -13z"/>
<path fill='pink' d="M1019 2083 c-13 -16 -12 -17 4 -4 16 13 21 21 13 21 -2 0 -10 -8 -17
-17z"/>
<path fill='pink' d="M1085 2068 l-20 -21 23 12 c12 6 22 16 22 21 0 13 -2 12 -25 -12z"/>
<path fill='pink' d="M1387 2079 c7 -7 15 -10 18 -7 3 3 -2 9 -12 12 -14 6 -15 5 -6 -5z"/>
<path fill='pink' d="M1492 2074 c-7 -8 -8 -14 -3 -14 10 0 25 19 20 25 -2 1 -10 -3 -17
-11z"/>
<path fill='pink' d="M1730 2061 c0 -8 -6 -11 -16 -7 -9 4 -13 2 -8 -5 4 -6 0 -15 -7 -20
-8 -5 -9 -9 -3 -9 15 0 49 39 41 47 -4 3 -7 1 -7 -6z"/>
<path fill='pink' d="M880 2047 c14 -7 31 -12 38 -9 19 7 9 13 -30 18 -33 5 -33 5 -8 -9z"/>
<path fill='pink' d="M1220 2056 c0 -2 8 -10 18 -17 15 -13 16 -12 3 4 -13 16 -21 21 -21
13z"/>
<path fill='pink' d="M2135 2051 c-3 -5 -2 -12 3 -15 5 -3 9 1 9 9 0 17 -3 19 -12 6z"/>
<path fill='pink' d="M2395 2049 c-4 -6 -5 -12 -2 -15 2 -3 7 2 10 11 7 17 1 20 -8 4z"/>
<path fill='pink' d="M1028 2038 c5 -5 16 -8 23 -6 8 3 3 7 -10 11 -17 4 -21 3 -13 -5z"/>
<path fill='pink' d="M853 2018 c0 -13 1 -17 4 -10 8 20 22 14 18 -8 -2 -11 0 -18 6 -15 5
4 9 1 9 -5 0 -6 5 -8 10 -5 6 4 8 10 5 15 -3 4 2 10 10 14 8 3 15 11 15 17 0
7 -8 5 -20 -6 -11 -10 -23 -15 -27 -12 -3 4 -3 7 2 7 4 0 2 7 -5 15 -17 21
-26 19 -27 -7z"/>
<path fill='pink' d="M2365 2030 c-3 -5 -1 -10 4 -10 6 0 11 5 11 10 0 6 -2 10 -4 10 -3 0
-8 -4 -11 -10z"/>
<path fill='pink' d="M2429 2003 c-13 -16 -12 -17 4 -4 9 7 17 15 17 17 0 8 -8 3 -21 -13z"/>
<path fill='pink' d="M1080 2000 c-13 -8 -12 -10 3 -10 9 0 17 5 17 10 0 12 -1 12 -20 0z"/>
<path fill='pink' d="M921 1973 c-10 -26 -10 -27 4 -9 8 11 15 23 15 28 0 15 -7 8 -19 -19z"/>
<path fill='pink' d="M1246 1991 c-3 -5 2 -15 12 -22 15 -12 16 -12 5 2 -7 9 -10 19 -6 22
3 4 4 7 0 7 -3 0 -8 -4 -11 -9z"/>
<path fill='pink' d="M2439 1983 c-13 -16 -12 -17 4 -4 9 7 17 15 17 17 0 8 -8 3 -21 -13z"/>
<path fill='pink' d="M964 1975 c-4 -8 -11 -12 -17 -8 -6 3 -7 1 -3 -5 10 -16 14 -15 26 8
6 11 8 20 5 20 -3 0 -8 -7 -11 -15z"/>
<path fill='pink' d="M2376 1975 c-9 -26 -7 -32 5 -12 6 10 9 21 6 23 -2 3 -7 -2 -11 -11z"/>
<path fill='pink' d="M818 1959 c-10 -10 -14 -19 -9 -19 6 0 12 4 16 10 3 5 12 7 20 4 8
-4 12 -11 8 -17 -4 -6 -1 -7 7 -2 10 6 9 11 -4 21 -13 9 -14 13 -4 17 9 4 9 5
-2 5 -8 0 -23 -8 -32 -19z"/>
<path fill='pink' d="M1174 1958 l-19 -23 25 20 c14 11 27 21 29 22 2 2 0 3 -6 3 -5 0 -18
-10 -29 -22z"/>
<path fill='pink' d="M1446 1963 c-6 -14 -5 -15 5 -6 7 7 10 15 7 18 -3 3 -9 -2 -12 -12z"/>
<path fill='pink' d="M2307 1974 c-3 -3 -3 -13 0 -22 5 -11 3 -13 -7 -7 -9 5 -11 4 -6 -4
10 -16 25 -4 23 19 -1 22 -1 22 -10 14z"/>
<path fill='pink' d="M1758 1963 c6 -2 9 -10 6 -15 -4 -7 -2 -8 5 -4 13 9 5 26 -12 25 -9
0 -8 -2 1 -6z"/>
<path fill='pink' d="M2463 1958 c3 -9 1 -19 -6 -22 -7 -2 -4 -5 6 -5 11 -1 15 -6 11 -13
-4 -7 -3 -8 4 -4 9 5 9 13 1 29 -15 28 -24 37 -16 15z"/>
<path fill='pink' d="M2261 1937 c-13 -21 -12 -21 5 -5 10 10 16 20 13 22 -3 3 -11 -5 -18
-17z"/>
<path fill='pink' d="M2396 1938 c3 -5 10 -6 15 -3 13 9 11 12 -6 12 -8 0 -12 -4 -9 -9z"/>
<path fill='pink' d="M936 1932 c-3 -5 1 -9 9 -9 8 0 12 4 9 9 -3 4 -7 8 -9 8 -2 0 -6 -4
-9 -8z"/>
<path fill='pink' d="M2197 1927 c-4 -12 0 -15 14 -12 13 3 19 0 16 -8 -3 -7 -11 -10 -18
-9 -8 2 -10 0 -6 -4 15 -16 34 -11 33 7 -1 11 -5 19 -10 18 -5 0 -12 5 -16 11
-5 8 -9 7 -13 -3z"/>
<path fill='pink' d="M735 1919 c-4 -6 -5 -12 -2 -15 2 -3 7 2 10 11 7 17 1 20 -8 4z"/>
<path fill='pink' d="M763 1913 c1 -17 4 -19 14 -11 15 12 18 22 4 14 -5 -4 -11 0 -14 6
-3 7 -4 3 -4 -9z"/>
<path fill='pink' d="M800 1917 c0 -6 -8 -19 -17 -29 -16 -18 -16 -18 0 -12 9 3 17 10 17
16 0 5 5 6 12 2 7 -4 8 -3 4 4 -4 7 -2 12 3 12 6 0 11 -4 11 -10 0 -5 4 -10 9
-10 5 0 8 8 7 17 -3 17 -46 27 -46 10z"/>
<path fill='pink' d="M1090 1916 c0 -8 4 -17 9 -20 5 -4 7 3 4 14 -6 23 -13 26 -13 6z"/>
<path fill='pink' d="M2276 1922 c-3 -5 1 -9 9 -9 8 0 12 4 9 9 -3 4 -7 8 -9 8 -2 0 -6 -4
-9 -8z"/>
<path fill='pink' d="M2426 1921 c-4 -5 -2 -12 3 -15 5 -4 12 -2 15 3 4 5 2 12 -3 15 -5 4
-12 2 -15 -3z"/>
<path fill='pink' d="M903 1905 c0 -8 4 -12 9 -9 5 3 6 10 3 15 -9 13 -12 11 -12 -6z"/>
<path fill='pink' d="M2336 1899 c3 -13 6 -30 6 -36 1 -10 5 -10 17 -1 26 20 27 21 9 15
-10 -4 -19 -2 -19 3 -1 6 -2 14 -3 19 0 5 -4 13 -8 17 -4 3 -5 -4 -2 -17z"/>
<path fill='pink' d="M2173 1895 c0 -8 4 -12 9 -9 5 3 6 10 3 15 -9 13 -12 11 -12 -6z"/>
<path fill='pink' d="M2479 1889 c-6 -13 -7 -19 -1 -15 6 3 12 0 15 -6 2 -7 4 -1 4 15 1
33 -3 34 -18 6z"/>
<path fill='pink' d="M1037 1877 c-3 -8 1 -14 8 -14 7 0 11 6 8 14 -3 7 -6 13 -8 13 -2 0
-5 -6 -8 -13z"/>
<path fill='pink' d="M1520 1880 c0 -5 5 -10 11 -10 5 0 7 5 4 10 -3 6 -8 10 -11 10 -2 0
-4 -4 -4 -10z"/>
<path fill='pink' d="M2287 1884 c-3 -3 -3 -12 -1 -19 3 -7 1 -16 -5 -20 -6 -3 -11 -11
-11 -18 0 -6 6 -3 14 8 7 11 13 28 13 38 0 19 -1 20 -10 11z"/>
<path fill='pink' d="M2436 1864 c-5 -14 -4 -15 9 -4 17 14 19 20 6 20 -5 0 -12 -7 -15
-16z"/>
<path fill='pink' d="M828 1858 c5 -5 16 -8 23 -6 8 3 3 7 -10 11 -17 4 -21 3 -13 -5z"/>
<path fill='pink' d="M1830 1865 c0 -7 30 -13 34 -7 3 4 -4 9 -15 9 -10 1 -19 0 -19 -2z"/>
<path fill='pink' d="M914 1848 c-4 -7 -3 -10 1 -5 5 4 16 0 26 -9 13 -12 19 -12 25 -3 4
8 3 10 -5 5 -6 -4 -14 0 -17 8 -7 19 -20 21 -30 4z"/>
<path fill='pink' d="M1731 1854 c-1 -6 5 -17 12 -23 10 -8 14 -7 14 4 0 8 -4 12 -8 9 -4
-2 -10 2 -12 8 -4 8 -6 9 -6 2z"/>
<path fill='pink' d="M776 1841 c-3 -5 1 -12 10 -15 8 -3 13 -10 9 -15 -3 -6 5 -8 20 -5
18 3 23 1 19 -10 -3 -8 -1 -17 5 -21 7 -4 10 2 8 16 -2 13 -10 25 -18 27 -43
11 -44 13 -29 22 13 8 12 10 -2 10 -9 0 -19 -4 -22 -9z"/>
<path fill='pink' d="M2410 1841 c0 -6 4 -13 10 -16 6 -3 7 1 4 9 -7 18 -14 21 -14 7z"/>
<path fill='pink' d="M2456 1837 c3 -10 9 -15 12 -12 3 3 0 11 -7 18 -10 9 -11 8 -5 -6z"/>
<path fill='pink' d="M2145 1814 c-10 -15 -12 -23 -4 -19 9 6 11 4 6 -7 -4 -11 0 -15 11
-14 9 2 17 8 17 14 0 6 3 14 8 18 4 4 7 0 7 -9 0 -9 4 -19 10 -22 7 -4 7 2 1
18 -6 14 -7 29 -3 33 4 5 -2 1 -14 -9 -27 -23 -37 -22 -24 3 15 29 5 25 -15
-6z"/>
<path fill='pink' d="M2232 1820 c0 -14 2 -19 5 -12 2 6 2 18 0 25 -3 6 -5 1 -5 -13z"/>
<path fill='pink' d="M898 1818 c5 -5 16 -8 23 -6 8 3 3 7 -10 11 -17 4 -21 3 -13 -5z"/>
<path fill='pink' d="M917 1783 c3 -7 6 -13 8 -13 2 0 5 6 8 13 3 8 -1 14 -8 14 -7 0 -11
-6 -8 -14z"/>
<path fill='pink' d="M2413 1764 c0 -13 4 -24 9 -24 5 0 7 4 4 9 -4 5 -2 11 3 13 5 1 3 8
-4 15 -10 9 -12 6 -12 -13z"/>
<path fill='pink' d="M1665 1761 c-3 -5 -1 -12 5 -16 6 -4 7 -11 4 -17 -4 -7 -2 -8 5 -4 8
6 9 12 2 20 -6 7 -8 16 -4 19 3 4 4 7 0 7 -3 0 -8 -4 -12 -9z"/>
<path fill='pink' d="M1990 1739 c-14 -16 -40 -47 -59 -67 -18 -20 -54 -62 -80 -91 -55
-66 -112 -121 -124 -121 -4 0 -5 -4 -2 -10 3 -5 -2 -10 -11 -10 -20 0 -11 -13
11 -16 8 -1 15 5 15 14 0 14 2 15 9 2 6 -8 7 -18 4 -24 -3 -5 -1 -6 6 -2 6 4
9 11 6 16 -3 5 4 7 16 5 12 -2 19 -2 15 2 -3 4 1 14 10 24 12 14 13 18 2 25
-7 4 -10 4 -6 -1 11 -11 -11 -35 -31 -35 -14 1 -14 2 2 14 9 7 17 18 17 25 0
6 8 11 17 11 9 0 13 3 10 7 -10 10 34 53 47 46 6 -3 8 -3 4 2 -9 9 18 50 32
50 6 0 9 2 8 5 -2 5 28 44 62 79 22 23 52 72 48 76 -2 3 -15 -9 -28 -26z"/>
<path fill='pink' d="M2069 1753 c-13 -16 -12 -17 4 -4 9 7 17 15 17 17 0 8 -8 3 -21 -13z"/>
<path fill='pink' d="M2120 1754 c0 -8 -4 -13 -8 -10 -4 2 -14 0 -22 -6 -12 -8 -12 -9 2
-5 9 3 19 1 22 -6 3 -9 5 -8 5 1 1 7 5 11 10 8 5 -4 7 3 4 14 -6 24 -13 26
-13 4z"/>
<path fill='pink' d="M2446 1754 c-5 -14 -4 -15 9 -4 17 14 19 20 6 20 -5 0 -12 -7 -15
-16z"/>
<path fill='pink' d="M2503 1755 c0 -8 4 -12 9 -9 5 3 6 10 3 15 -9 13 -12 11 -12 -6z"/>
<path fill='pink' d="M2541 1754 c0 -11 3 -14 6 -6 3 7 2 16 -1 19 -3 4 -6 -2 -5 -13z"/>
<path fill='pink' d="M2040 1741 c8 -16 9 -26 2 -30 -7 -4 -8 -12 -2 -21 6 -9 10 -10 10
-3 0 6 2 17 5 25 3 7 -2 22 -10 33 -15 19 -16 19 -5 -4z"/>
<path fill='pink' d="M2287 1740 c-10 -13 -10 -13 5 -2 9 7 18 9 20 3 1 -5 9 -3 15 4 10
11 9 13 -8 12 -11 -1 -26 -8 -32 -17z"/>
<path fill='pink' d="M2208 1743 c7 -3 16 -2 19 1 4 3 -2 6 -13 5 -11 0 -14 -3 -6 -6z"/>
<path fill='pink' d="M2240 1746 c0 -2 8 -10 18 -17 15 -13 16 -12 3 4 -13 16 -21 21 -21
13z"/>
<path fill='pink' d="M2392 1730 c0 -14 2 -19 5 -12 2 6 2 18 0 25 -3 6 -5 1 -5 -13z"/>
<path fill='pink' d="M2562 1735 c4 -4 3 -14 -3 -21 -13 -16 2 -26 21 -13 11 6 12 9 2 9
-7 0 -11 4 -7 9 3 5 0 13 -7 17 -7 4 -10 4 -6 -1z"/>
<path fill='pink' d="M574 1719 c-3 -6 -2 -15 3 -20 5 -5 9 -1 10 11 2 22 -2 25 -13 9z"/>
<path fill='pink' d="M631 1717 c-6 -8 -8 -17 -4 -21 4 -4 -3 -9 -15 -13 -12 -3 -22 -10
-22 -16 0 -6 3 -7 7 -4 3 4 16 -1 27 -10 12 -10 15 -11 9 -3 -19 21 -16 35 5
18 29 -25 43 -31 40 -16 -2 8 5 12 17 10 16 -2 17 -1 5 7 -8 5 -17 8 -21 5 -4
-2 -10 3 -13 12 -3 8 -11 12 -18 8 -8 -5 -9 0 -6 14 7 25 5 27 -11 9z m33 -44
c3 -7 2 -13 -3 -13 -5 0 -14 6 -20 13 -8 10 -7 14 4 14 8 0 16 -6 19 -14z"/>
<path fill='pink' d="M2446 1717 c3 -10 9 -15 12 -12 3 3 0 11 -7 18 -10 9 -11 8 -5 -6z"/>
<path fill='pink' d="M2005 1709 c-4 -6 -5 -12 -2 -15 2 -3 7 2 10 11 7 17 1 20 -8 4z"/>
<path fill='pink' d="M2479 1699 c-6 -13 -7 -19 -1 -15 6 3 12 0 15 -6 2 -7 4 -1 3 14 -1
34 -2 34 -17 7z"/>
<path fill='pink' d="M1095 1699 c-4 -6 -5 -12 -2 -15 2 -3 7 2 10 11 7 17 1 20 -8 4z"/>
<path fill='pink' d="M2085 1700 c-2 -3 5 -7 16 -7 10 -1 19 2 19 6 0 9 -29 10 -35 1z"/>
<path fill='pink' d="M2296 1698 c3 -5 10 -6 15 -3 13 9 11 12 -6 12 -8 0 -12 -4 -9 -9z"/>
<path fill='pink' d="M1581 1674 c0 -11 3 -14 6 -6 3 7 2 16 -1 19 -3 4 -6 -2 -5 -13z"/>
<path fill='pink' d="M2395 1680 c-3 -5 -1 -10 4 -10 6 0 11 5 11 10 0 6 -2 10 -4 10 -3 0
-8 -4 -11 -10z"/>
<path fill='pink' d="M541 1667 c-17 -17 -13 -31 4 -17 9 8 15 9 15 2 0 -11 -19 -27 -32
-27 -3 0 -10 -4 -15 -9 -5 -5 -3 -6 5 -2 6 4 12 3 12 -3 0 -5 3 -17 6 -26 4
-10 2 -15 -7 -13 -11 2 -14 -10 -14 -49 1 -51 -14 -77 -16 -30 -1 17 -2 18 -6
4 -6 -24 17 -53 28 -35 5 7 5 24 2 37 -5 19 -3 22 8 16 11 -6 12 -5 2 6 -7 7
-12 22 -12 34 1 16 2 17 6 3 2 -10 9 -18 15 -18 5 0 8 7 5 15 -4 8 -2 17 3 20
6 4 10 1 10 -6 0 -7 3 -9 7 -5 5 4 0 14 -11 21 -19 14 -18 25 9 61 13 18 14
22 2 27 -8 3 -20 0 -26 -6z"/>
<path fill='pink' d="M748 1668 c5 -5 16 -8 23 -6 8 3 3 7 -10 11 -17 4 -21 3 -13 -5z"/>
<path fill='pink' d="M1065 1671 c-3 -5 -2 -12 3 -15 5 -3 9 1 9 9 0 17 -3 19 -12 6z"/>
<path fill='pink' d="M2225 1669 c-4 -6 -5 -12 -2 -15 2 -3 7 2 10 11 7 17 1 20 -8 4z"/>
<path fill='pink' d="M2310 1669 c0 -5 5 -7 10 -4 6 3 10 8 10 11 0 2 -4 4 -10 4 -5 0 -10
-5 -10 -11z"/>
<path fill='pink' d="M2426 1665 c-11 -8 -14 -15 -8 -15 20 0 26 4 28 18 3 15 3 15 -20 -3z"/>
<path fill='pink' d="M2341 1654 c0 -11 3 -14 6 -6 3 7 2 16 -1 19 -3 4 -6 -2 -5 -13z"/>
<path fill='pink' d="M1045 1649 c4 -5 -4 -8 -16 -6 -12 1 -24 -4 -27 -12 -3 -10 0 -12 11
-8 9 3 21 -1 28 -9 6 -8 14 -12 17 -9 3 3 16 -2 29 -10 13 -9 23 -11 23 -6 0
5 7 11 15 15 9 3 15 0 15 -10 0 -8 -4 -12 -10 -9 -5 3 -10 2 -10 -3 0 -21 26
-18 37 4 6 13 7 22 3 19 -5 -3 -11 -1 -15 5 -4 6 -11 8 -16 5 -5 -4 -9 0 -9 7
0 9 -3 9 -10 -2 -6 -9 -10 -10 -10 -3 0 6 -14 18 -30 27 -17 8 -28 10 -25 5z
m40 -29 c3 -5 1 -10 -4 -10 -6 0 -11 5 -11 10 0 6 2 10 4 10 3 0 8 -4 11 -10z"/>
<path fill='pink' d="M1244 1646 c1 -8 5 -18 8 -22 4 -3 5 1 4 10 -1 8 -5 18 -8 22 -4 3
-5 -1 -4 -10z"/>
<path fill='pink' d="M2090 1649 c0 -5 5 -7 10 -4 6 3 10 8 10 11 0 2 -4 4 -10 4 -5 0 -10
-5 -10 -11z"/>
<path fill='pink' d="M2601 1644 c0 -11 3 -14 6 -6 3 7 2 16 -1 19 -3 4 -6 -2 -5 -13z"/>
<path fill='pink' d="M587 1632 c4 -9 2 -13 -4 -9 -6 4 -17 -1 -24 -10 -10 -12 -10 -14 -1
-9 6 4 12 2 12 -4 0 -11 36 18 42 34 2 5 -5 10 -14 12 -11 1 -15 -3 -11 -14z"/>
<path fill='pink' d="M1979 1648 c-5 -18 -6 -38 -1 -34 7 8 12 36 6 36 -2 0 -4 -1 -5 -2z"/>
<path fill='pink' d="M2141 1634 c0 -11 3 -14 6 -6 3 7 2 16 -1 19 -3 4 -6 -2 -5 -13z"/>
<path fill='pink' d="M2242 1637 c-8 -9 -8 -17 0 -27 8 -13 9 -12 5 1 -3 9 0 22 6 28 6 6
8 11 5 11 -3 0 -10 -6 -16 -13z"/>
<path fill='pink' d="M794 1628 c-3 -5 -3 -12 0 -15 3 -4 6 -1 6 7 0 10 3 10 15 0 10 -8
15 -9 15 -2 0 7 8 9 18 5 9 -3 14 -3 10 1 -10 12 -58 14 -64 4z"/>
<path fill='pink' d="M1999 1623 c0 -5 -2 -18 -3 -30 -2 -13 0 -21 2 -18 3 3 12 -1 21 -8
13 -10 12 -8 -1 12 -9 13 -14 30 -11 37 3 8 2 14 -1 14 -3 0 -6 -3 -7 -7z"/>
<path fill='pink' d="M2042 1610 c-18 -29 -15 -38 4 -12 9 13 14 25 12 27 -2 2 -9 -5 -16
-15z"/>
<path fill='pink' d="M2109 1611 c6 -10 7 -22 3 -26 -4 -5 -1 -5 6 -1 9 5 9 12 2 27 -6 10
-13 19 -16 19 -2 0 0 -8 5 -19z"/>
<path fill='pink' d="M2273 1615 c-3 -9 -3 -18 -1 -21 3 -3 8 4 11 16 6 23 -1 27 -10 5z"/>
<path fill='pink' d="M2374 1619 c-3 -6 -2 -15 3 -20 5 -5 9 -1 9 11 0 23 -2 24 -12 9z"/>
<path fill='pink' d="M655 1610 c-4 -6 -14 -9 -22 -8 -9 2 -17 -5 -19 -15 -2 -15 0 -16 12
-6 12 10 17 8 28 -6 10 -14 15 -15 21 -5 5 8 4 11 -2 7 -6 -4 -13 -1 -16 7 -8
21 4 28 22 13 14 -11 14 -10 2 6 -16 20 -18 20 -26 7z"/>
<path fill='pink' d="M1799 1613 c-1 -5 -1 -15 0 -24 2 -19 -47 -62 -60 -53 -5 3 -12 -2
-15 -10 -3 -9 -10 -13 -15 -10 -5 3 -6 11 -2 17 4 7 -2 5 -13 -3 -29 -22 -30
-24 -11 -17 9 4 17 3 17 -2 0 -13 -46 -19 -65 -8 -15 8 -15 6 -6 -12 13 -23
27 -27 33 -10 2 6 23 12 47 13 38 2 50 8 83 46 34 38 37 46 24 56 -9 6 -13 14
-9 17 3 4 3 7 0 7 -4 0 -8 -3 -8 -7z"/>
<path fill='pink' d="M2069 1603 c-13 -16 -12 -17 4 -4 9 7 17 15 17 17 0 8 -8 3 -21 -13z"/>
<path fill='pink' d="M2297 1614 c-10 -11 -9 -26 2 -20 5 4 11 2 13 -3 1 -5 10 -2 18 7 13
14 12 15 -2 9 -9 -3 -18 -1 -20 4 -2 6 -7 7 -11 3z"/>
<path fill='pink' d="M733 1595 c0 -8 4 -12 9 -9 5 3 6 10 3 15 -9 13 -12 11 -12 -6z"/>
<path fill='pink' d="M1920 1595 c-7 -8 -17 -12 -23 -8 -6 4 -7 1 -3 -6 6 -9 13 -8 27 5
10 9 19 19 19 21 0 7 -8 2 -20 -12z"/>
<path fill='pink' d="M2567 1591 c-4 -17 -3 -21 5 -13 5 5 8 16 6 23 -3 8 -7 3 -11 -10z"/>
<path fill='pink' d="M496 1584 c-5 -14 -4 -15 9 -4 17 14 19 20 6 20 -5 0 -12 -7 -15 -16z"/>
<path fill='pink' d="M790 1596 c0 -2 7 -6 15 -10 8 -3 15 -1 15 4 0 6 -7 10 -15 10 -8 0
-15 -2 -15 -4z"/>
<path fill='pink' d="M1173 1593 c-7 -3 -13 -11 -13 -19 0 -9 4 -13 9 -9 5 3 13 0 17 -6 4
-8 9 -7 15 2 7 11 9 10 9 -5 0 -16 2 -17 17 -5 9 8 14 9 10 3 -4 -7 0 -15 9
-18 8 -3 13 -2 10 2 -3 5 1 9 8 9 8 0 12 -7 8 -15 -3 -9 -1 -13 5 -9 6 4 13 1
15 -5 3 -7 5 4 5 25 0 21 -3 33 -7 28 -8 -14 -51 -2 -43 13 4 7 1 6 -7 -1 -10
-9 -17 -10 -27 -2 -7 7 -13 8 -13 3 0 -5 -4 -4 -8 2 -4 6 -13 9 -19 7z"/>
<path fill='pink' d="M1725 1591 c-3 -5 -2 -12 3 -15 5 -3 9 1 9 9 0 17 -3 19 -12 6z"/>
<path fill='pink' d="M1970 1589 c0 -5 -4 -8 -9 -5 -5 3 -15 -2 -22 -12 -13 -16 -13 -16 5
-2 18 14 19 13 13 -5 -7 -20 -7 -20 8 -1 15 20 20 36 10 36 -3 0 -5 -5 -5 -11z"/>
<path fill='pink' d="M2079 1583 c-13 -16 -12 -17 4 -4 9 7 17 15 17 17 0 8 -8 3 -21 -13z"/>
<path fill='pink' d="M2594 1578 c0 -10 1 -18 3 -18 1 0 7 8 12 18 7 13 6 19 -2 19 -7 0
-13 -9 -13 -19z"/>
<path fill='pink' d="M873 1566 c-1 -12 1 -16 3 -10 3 7 13 11 22 9 9 -1 11 0 3 2 -12 4
-12 6 0 14 10 6 8 8 -7 7 -13 -1 -20 -9 -21 -22z"/>
<path fill='pink' d="M2155 1581 c-6 -11 -5 -12 18 -15 6 -1 11 -7 10 -12 -1 -6 4 -11 11
-11 7 0 13 6 13 14 0 7 -3 11 -5 8 -3 -3 -13 2 -23 11 -11 10 -19 12 -24 5z"/>
<path fill='pink' d="M2351 1574 c0 -11 3 -14 6 -6 3 7 2 16 -1 19 -3 4 -6 -2 -5 -13z"/>
<path fill='pink' d="M2447 1577 c-3 -8 -1 -20 5 -28 8 -11 9 -11 5 2 -3 9 0 22 6 28 8 8
8 11 0 11 -6 0 -13 -6 -16 -13z"/>
<path fill='pink' d="M765 1570 c3 -5 8 -10 11 -10 2 0 4 5 4 10 0 6 -5 10 -11 10 -5 0 -7
-4 -4 -10z"/>
<path fill='pink' d="M930 1571 c0 -6 4 -13 10 -16 6 -3 7 1 4 9 -7 18 -14 21 -14 7z"/>
<path fill='pink' d="M959 1568 c15 -21 31 -23 31 -6 0 6 -3 8 -7 5 -3 -4 -13 -1 -22 6
-14 11 -14 10 -2 -5z"/>
<path fill='pink' d="M1763 1565 c0 -8 4 -12 9 -9 5 3 6 10 3 15 -9 13 -12 11 -12 -6z"/>
<path fill='pink' d="M715 1562 c-6 -4 -2 -15 12 -29 13 -12 23 -18 23 -14 0 5 -7 15 -16
22 -14 12 -14 14 3 20 12 5 14 8 3 8 -8 0 -20 -3 -25 -7z"/>
<path fill='pink' d="M1310 1560 c0 -6 7 -10 15 -10 8 0 15 2 15 4 0 2 -7 6 -15 10 -8 3
-15 1 -15 -4z"/>
<path fill='pink' d="M810 1545 c14 -7 24 -16 23 -19 -7 -16 -1 -24 22 -28 32 -7 32 0 -1
12 -14 6 -23 14 -19 19 5 10 -25 31 -42 31 -4 -1 3 -7 17 -15z"/>
<path fill='pink' d="M2136 1551 c-4 -5 -2 -12 3 -15 5 -4 12 -2 15 3 4 5 2 12 -3 15 -5 4
-12 2 -15 -3z"/>
<path fill='pink' d="M2410 1556 c0 -2 8 -10 18 -17 15 -13 16 -12 3 4 -13 16 -21 21 -21
13z"/>
<path fill='pink' d="M603 1535 c0 -7 8 -10 19 -7 10 2 18 6 18 7 0 1 -8 5 -18 7 -11 3
-19 0 -19 -7z"/>
<path fill='pink' d="M2102 1543 c5 -19 -23 -52 -40 -47 -11 4 -13 3 -5 -3 8 -6 9 -14 3
-23 -6 -8 -10 -19 -10 -24 0 -5 14 12 31 37 19 29 35 44 42 40 7 -4 6 1 -2 10
-14 18 -22 22 -19 10z"/>
<path fill='pink' d="M2306 1535 c-9 -26 -7 -32 5 -12 6 10 9 21 6 23 -2 3 -7 -2 -11 -11z"/>
<path fill='pink' d="M2360 1546 c0 -2 8 -10 18 -17 15 -13 16 -12 3 4 -13 16 -21 21 -21
13z"/>
<path fill='pink' d="M2515 1539 c-4 -6 -5 -12 -2 -15 2 -3 7 2 10 11 7 17 1 20 -8 4z"/>
<path fill='pink' d="M2559 1533 c-12 -16 -12 -17 2 -6 9 7 20 9 24 5 5 -4 5 -1 1 6 -9 16
-11 15 -27 -5z"/>
<path fill='pink' d="M459 1518 c-7 -13 -20 -36 -29 -53 -124 -221 -135 -252 -118 -327 9
-36 18 -52 34 -58 12 -5 25 -14 29 -19 8 -14 35 -14 35 -1 0 5 -7 7 -15 4 -11
-4 -13 -2 -9 9 3 8 1 18 -5 22 -7 3 -8 0 -5 -9 14 -36 -7 -12 -31 36 -22 43
-24 57 -16 76 6 13 8 28 5 34 -8 13 13 2 38 -20 12 -10 15 -19 9 -26 -6 -7 -2
-20 11 -36 l20 -25 -15 26 c-10 17 -12 30 -6 36 6 6 -2 20 -21 38 -29 28 -40
65 -19 65 5 0 8 4 5 9 -8 12 19 33 29 23 4 -4 4 3 1 16 -5 13 -3 22 3 22 6 0
10 3 9 8 -5 17 14 52 24 46 7 -5 9 -1 5 9 -3 8 1 21 8 27 8 7 12 16 9 21 -3 5
2 12 10 15 9 3 14 10 11 14 -3 5 2 16 11 24 8 9 11 16 5 16 -6 0 -16 -10 -22
-22z"/>
<path fill='pink' d="M675 1520 c10 -11 20 -20 23 -20 3 0 -3 9 -13 20 -10 11 -20 20 -23
20 -3 0 3 -9 13 -20z"/>
<path fill='pink' d="M860 1530 c-13 -8 -12 -10 3 -10 9 0 17 5 17 10 0 12 -1 12 -20 0z"/>
<path fill='pink' d="M920 1525 c-7 -8 -17 -12 -23 -8 -6 4 -7 1 -3 -6 6 -9 13 -8 27 5 10
9 19 19 19 21 0 7 -8 2 -20 -12z"/>
<path fill='pink' d="M2479 1529 c5 -6 7 -19 4 -28 -5 -13 -3 -14 8 -3 11 10 10 15 -4 27
-9 8 -13 10 -8 4z"/>
<path fill='pink' d="M2573 1480 c-26 -33 -47 -62 -45 -65 2 -4 -7 -14 -19 -23 -20 -17
-21 -18 -1 -18 11 0 19 3 16 7 -2 4 3 12 11 19 8 7 13 16 10 20 -3 5 1 14 8
22 23 24 79 98 74 98 -3 0 -27 -27 -54 -60z"/>
<path fill='pink' d="M710 1512 c0 -4 10 -13 23 -21 22 -14 22 -14 3 8 -20 22 -26 25 -26
13z"/>
<path fill='pink' d="M943 1513 c-8 -3 -7 -10 4 -23 9 -11 18 -29 20 -40 3 -21 3 -21 -26
2 -15 13 -26 27 -23 32 3 5 0 6 -6 2 -6 -4 -9 -13 -6 -21 4 -8 10 -13 14 -10
4 2 15 -4 25 -15 10 -12 13 -20 7 -20 -7 0 -12 -5 -12 -11 0 -8 4 -9 13 0 8 6
16 8 19 6 3 -3 5 7 4 22 0 18 4 27 13 25 7 -1 10 2 6 8 -8 13 11 13 35 0 13
-7 21 -7 26 2 4 6 3 8 -2 5 -5 -3 -30 5 -54 17 -25 13 -50 21 -57 19z m47 -28
c0 -15 -21 -12 -30 5 -11 20 -10 21 9 10 12 -6 21 -13 21 -15z"/>
<path fill='pink' d="M1841 1503 c-7 -8 -11 -16 -8 -19 2 -2 10 2 17 11 17 20 9 27 -9 8z"/>
<path fill='pink' d="M561 1507 c2 -1 13 -9 24 -17 19 -14 19 -14 6 3 -7 9 -18 17 -24 17
-6 0 -8 -1 -6 -3z"/>
<path fill='pink' d="M624 1498 c-4 -7 -3 -10 1 -5 5 4 18 1 30 -7 19 -12 22 -12 22 0 0 8
-2 12 -5 9 -3 -2 -13 0 -23 5 -12 7 -20 6 -25 -2z"/>
<path fill='pink' d="M1873 1486 c-1 -11 1 -15 4 -8 4 10 8 10 19 1 8 -6 14 -8 14 -4 0 4
10 1 23 -7 28 -18 49 -17 54 2 3 9 1 11 -4 5 -9 -12 -20 -12 -46 0 -15 6 -15
10 -5 24 11 14 11 14 -3 4 -9 -7 -19 -10 -23 -6 -15 15 -32 9 -33 -11z"/>
<path fill='pink' d="M1957 1499 c7 -7 15 -10 18 -7 3 3 -2 9 -12 12 -14 6 -15 5 -6 -5z"/>
<path fill='pink' d="M1088 1488 c5 -5 16 -8 23 -6 8 3 3 7 -10 11 -17 4 -21 3 -13 -5z"/>
<path fill='pink' d="M1130 1493 c0 -5 5 -15 10 -23 7 -12 9 -10 7 8 -1 19 -17 33 -17 15z"/>
<path fill='pink' d="M2097 1480 c-9 -11 -17 -22 -17 -24 0 -7 24 -1 39 8 11 7 13 5 8 -7
-11 -30 2 -18 18 16 10 19 11 26 3 17 -18 -21 -42 -25 -35 -5 8 20 5 19 -16
-5z"/>
<path fill='pink' d="M2514 1480 c0 -13 4 -16 10 -10 7 7 7 13 0 20 -6 6 -10 3 -10 -10z"/>
<path fill='pink' d="M804 1472 c12 -13 18 -13 30 -2 9 7 17 10 17 6 1 -3 2 -10 3 -15 0
-5 6 -13 11 -18 6 -4 7 -4 3 1 -4 5 -3 15 4 23 6 8 7 13 2 12 -5 -1 -11 0 -14
1 -3 1 -20 3 -38 5 -30 2 -32 1 -18 -13z"/>
<path fill='pink' d="M1694 1475 c-16 -12 -16 -14 -3 -15 9 0 22 7 29 15 16 19 0 19 -26 0z"/>
<path fill='pink' d="M2319 1473 c-13 -16 -12 -17 4 -4 9 7 17 15 17 17 0 8 -8 3 -21 -13z"/>
<path fill='pink' d="M620 1469 c0 -5 5 -7 10 -4 6 3 10 8 10 11 0 2 -4 4 -10 4 -5 0 -10
-5 -10 -11z"/>
<path fill='pink' d="M1070 1476 c0 -2 8 -10 18 -17 15 -13 16 -12 3 4 -13 16 -21 21 -21
13z"/>
<path fill='pink' d="M1175 1470 c-3 -6 1 -7 9 -4 18 7 21 14 7 14 -6 0 -13 -4 -16 -10z"/>
<path fill='pink' d="M2031 1466 c-9 -11 -9 -16 1 -22 7 -4 10 -4 6 1 -4 4 -3 14 3 22 6 7
9 13 6 13 -2 0 -10 -6 -16 -14z"/>
<path fill='pink' d="M460 1460 c0 -5 5 -10 11 -10 5 0 7 5 4 10 -3 6 -8 10 -11 10 -2 0
-4 -4 -4 -10z"/>
<path fill='pink' d="M753 1457 c0 -8 6 -14 13 -14 7 0 10 6 7 14 -3 7 -8 13 -12 13 -4 0
-8 -6 -8 -13z"/>
<path fill='pink' d="M2240 1455 c-13 -16 -6 -35 13 -34 9 0 9 2 0 6 -7 2 -13 9 -13 14 0
6 4 8 8 5 5 -3 9 1 9 9 0 19 -2 19 -17 0z"/>
<path fill='pink' d="M545 1442 c1 -9 -3 -24 -9 -32 -9 -13 -9 -13 5 -3 9 7 20 9 25 5 4
-4 2 1 -5 11 -7 9 -10 17 -6 17 5 0 18 -8 29 -17 20 -17 20 -17 7 0 -8 10 -22
22 -32 27 -13 8 -17 6 -14 -8z"/>
<path fill='pink' d="M723 1445 c0 -8 4 -12 9 -9 4 3 8 9 8 15 0 5 -4 9 -8 9 -5 0 -9 -7
-9 -15z"/>
<path fill='pink' d="M1185 1449 c-3 -4 2 -6 10 -5 21 3 28 13 10 13 -9 0 -18 -4 -20 -8z"/>
<path fill='pink' d="M1245 1426 c-21 -22 -36 -31 -45 -26 -7 5 -9 13 -5 21 5 8 5 11 0 7
-4 -4 -15 -2 -23 5 -11 8 -14 8 -9 0 4 -6 3 -14 -2 -17 -14 -9 -8 -32 14 -57
15 -16 16 -20 5 -19 -34 5 -45 0 -25 -13 11 -6 22 -12 25 -12 3 0 12 -4 20
-10 12 -7 13 -6 4 6 -19 25 -13 50 10 43 14 -3 17 -2 9 3 -10 7 -10 13 2 29 8
10 15 14 15 8 0 -13 60 -14 60 -1 0 4 9 3 19 -3 29 -15 39 -12 17 5 -11 8 -14
15 -7 15 7 0 9 5 6 10 -4 6 -12 4 -21 -5 -18 -18 -38 -20 -28 -3 4 6 3 8 -3 5
-6 -4 -14 0 -17 8 -4 12 0 14 19 11 17 -3 22 -1 18 10 -8 22 -23 17 -58 -20z
m23 -18 c11 -14 11 -16 -2 -14 -21 3 -29 13 -21 26 4 6 8 10 9 8 1 -2 7 -11
14 -20z m-69 -39 c-24 -14 -41 13 -30 49 1 1 11 -8 22 -19 17 -17 19 -23 8
-30z"/>
<path fill='pink' d="M600 1440 c8 -5 20 -10 25 -10 6 0 3 5 -5 10 -8 5 -19 10 -25 10 -5
0 -3 -5 5 -10z"/>
<path fill='pink' d="M885 1440 c3 -5 8 -10 11 -10 2 0 4 5 4 10 0 6 -5 10 -11 10 -5 0 -7
-4 -4 -10z"/>
<path fill='pink' d="M995 1440 c-8 -13 9 -20 24 -11 10 6 9 10 -3 14 -8 3 -18 2 -21 -3z"/>
<path fill='pink' d="M1860 1442 c0 -5 7 -9 15 -9 8 0 12 4 9 9 -3 4 -9 8 -15 8 -5 0 -9
-4 -9 -8z"/>
<path fill='pink' d="M2153 1433 c0 -6 4 -10 9 -7 4 3 8 1 8 -5 0 -12 28 -8 40 7 7 8 7 9
-1 3 -6 -5 -18 -7 -26 -4 -12 5 -12 7 -1 14 9 6 7 8 -8 7 -11 -1 -21 -8 -21
-15z"/>
<path fill='pink' d="M2293 1438 c-20 -26 -22 -35 -9 -35 8 0 12 7 8 15 -3 9 -1 13 5 9 5
-3 10 0 10 8 0 18 -2 18 -14 3z"/>
<path fill='pink' d="M2497 1433 c3 -7 6 -13 8 -13 2 0 5 6 8 13 3 8 -1 14 -8 14 -7 0 -11
-6 -8 -14z"/>
<path fill='pink' d="M447 1427 c2 -4 13 -5 23 -2 12 4 23 -1 30 -12 11 -17 11 -17 6 1 -5
14 -2 17 11 12 10 -4 14 -3 9 1 -10 11 -86 11 -79 0z"/>
<path fill='pink' d="M690 1430 c0 -5 5 -10 11 -10 5 0 7 5 4 10 -3 6 -8 10 -11 10 -2 0
-4 -4 -4 -10z"/>
<path fill='pink' d="M1080 1429 c0 -4 7 -10 16 -13 8 -3 12 -2 9 4 -3 6 -1 10 4 10 6 0
11 -5 11 -11 0 -5 5 -7 10 -4 17 11 1 25 -25 23 -14 -1 -25 -5 -25 -9z"/>
<path fill='pink' d="M1414 1421 c20 -22 26 -25 26 -13 0 4 -10 13 -22 21 -23 14 -23 14
-4 -8z"/>
<path fill='pink' d="M2076 1428 c3 -5 10 -6 15 -3 13 9 11 12 -6 12 -8 0 -12 -4 -9 -9z"/>
<path fill='pink' d="M804 1423 c7 -7 19 -10 70 -18 16 -2 26 -2 23 2 -4 3 -17 7 -29 9
-13 2 -34 5 -47 8 -13 3 -21 2 -17 -1z"/>
<path fill='pink' d="M1051 1416 c-9 -11 -8 -17 4 -29 9 -10 11 -18 5 -22 -5 -3 -10 -11
-10 -18 0 -6 6 -2 14 9 8 10 11 23 6 29 -4 5 -6 18 -5 28 4 21 1 21 -14 3z"/>
<path fill='pink' d="M2016 1421 c-3 -5 0 -14 8 -20 10 -9 17 -7 27 6 13 16 12 17 -3 5
-10 -8 -19 -9 -22 -3 -3 5 0 12 6 14 9 4 10 6 1 6 -6 1 -14 -3 -17 -8z"/>
<path fill='pink' d="M2126 1414 c-4 -9 -4 -19 -1 -22 3 -3 5 0 5 6 0 6 8 9 18 6 10 -4 13
-2 7 3 -5 4 -13 12 -16 16 -4 4 -9 0 -13 -9z"/>
<path fill='pink' d="M1357 1409 c7 -7 15 -10 18 -7 3 3 -2 9 -12 12 -14 6 -15 5 -6 -5z"/>
<path fill='pink' d="M1390 1416 c0 -2 8 -10 18 -17 15 -13 16 -12 3 4 -13 16 -21 21 -21
13z"/>
<path fill='pink' d="M1494 1401 c20 -22 26 -25 26 -13 0 4 -10 13 -22 21 -23 14 -23 14
-4 -8z"/>
<path fill='pink' d="M451 1394 c0 -11 3 -14 6 -6 3 7 2 16 -1 19 -3 4 -6 -2 -5 -13z"/>
<path fill='pink' d="M780 1404 c0 -2 9 -8 20 -14 11 -6 20 -7 20 -2 0 6 -9 12 -20 15 -11
3 -20 3 -20 1z"/>
<path fill='pink' d="M1080 1400 c0 -5 5 -10 11 -10 5 0 7 5 4 10 -3 6 -8 10 -11 10 -2 0
-4 -4 -4 -10z"/>
<path fill='pink' d="M1455 1400 c3 -5 8 -10 11 -10 2 0 4 5 4 10 0 6 -5 10 -11 10 -5 0
-7 -4 -4 -10z"/>
<path fill='pink' d="M1730 1395 c0 -8 4 -15 10 -15 5 0 7 7 4 15 -4 8 -8 15 -10 15 -2 0
-4 -7 -4 -15z"/>
<path fill='pink' d="M1961 1394 c0 -11 3 -14 6 -6 3 7 2 16 -1 19 -3 4 -6 -2 -5 -13z"/>
<path fill='pink' d="M415 1390 c-5 -9 -4 -11 3 -6 7 4 12 1 12 -8 0 -9 8 -16 17 -16 9 0
28 -13 42 -28 14 -16 25 -26 23 -23 -1 2 5 12 14 22 12 13 12 19 3 25 -7 4
-10 3 -6 -3 4 -6 0 -16 -7 -22 -10 -8 -16 -9 -21 -1 -3 5 -3 10 2 10 4 0 1 5
-7 10 -13 8 -12 10 3 10 9 0 17 5 17 10 0 7 -6 7 -17 2 -21 -11 -44 -5 -59 16
-9 12 -13 12 -19 2z"/>
<path fill='pink' d="M543 1387 c-3 -4 -2 -11 1 -14 3 -4 6 -1 6 6 0 10 8 8 28 -5 19 -13
24 -13 15 -2 -7 8 -11 17 -8 19 2 3 -5 5 -16 5 -11 0 -23 -4 -26 -9z"/>
<path fill='pink' d="M629 1390 c-8 -6 -8 -9 0 -14 6 -4 11 -2 11 4 0 6 4 9 9 5 5 -3 12
-2 15 3 6 10 -19 11 -35 2z"/>
<path fill='pink' d="M905 1390 c-8 -14 1 -27 23 -32 11 -3 19 0 19 7 0 7 -8 10 -19 7 -20
-5 -25 13 -5 21 9 4 9 6 0 6 -6 1 -15 -3 -18 -9z"/>
<path fill='pink' d="M978 1382 c9 -10 20 -14 23 -9 3 5 9 8 13 8 20 -3 26 0 20 10 -4 8
-9 7 -15 -2 -7 -11 -9 -11 -9 1 0 12 -2 12 -9 1 -6 -9 -11 -10 -15 -2 -4 6
-11 11 -17 11 -5 0 -1 -8 9 -18z"/>
<path fill='pink' d="M1865 1389 c-4 -6 -4 -13 -1 -16 3 -4 6 -1 6 6 0 7 5 9 12 5 7 -4 8
-3 4 4 -9 15 -13 15 -21 1z"/>
<path fill='pink' d="M1992 1391 c-11 -7 -11 -9 0 -14 9 -3 15 1 15 9 0 8 -1 14 -1 14 -1
0 -7 -4 -14 -9z"/>
<path fill='pink' d="M2075 1390 c-4 -6 -10 -8 -14 -6 -4 3 -13 0 -21 -6 -12 -8 -12 -9 2
-5 9 3 19 1 22 -6 3 -9 5 -8 5 1 1 7 5 11 10 7 5 -3 12 -1 15 4 4 5 2 12 -3
15 -5 4 -12 2 -16 -4z"/>
<path fill='pink' d="M860 1386 c0 -2 8 -10 18 -17 15 -13 16 -12 3 4 -13 16 -21 21 -21
13z"/>
<path fill='pink' d="M1396 1378 c5 -7 2 -9 -9 -5 -12 4 -14 2 -10 -11 5 -14 3 -15 -8 -4
-7 6 -18 12 -23 12 -6 0 -2 -6 9 -14 11 -7 23 -13 27 -12 3 0 17 -8 30 -19 13
-12 32 -27 43 -35 18 -13 19 -13 8 0 -6 8 -11 19 -11 23 0 5 -4 12 -8 15 -4 4
-4 1 0 -5 11 -20 -9 -15 -27 5 -20 22 -22 39 -5 44 7 3 5 7 -6 11 -11 5 -15 3
-10 -5z"/>
<path fill='pink' d="M1430 1380 c0 -5 5 -10 11 -10 5 0 7 -5 4 -10 -4 -6 -11 -7 -17 -4
-7 4 -8 2 -4 -5 6 -9 11 -9 22 0 11 9 11 15 3 25 -14 17 -19 18 -19 4z"/>
<path fill='pink' d="M1580 1381 c0 -6 4 -13 10 -16 6 -3 7 1 4 9 -7 18 -14 21 -14 7z"/>
<path fill='pink' d="M2169 1371 c6 -10 9 -20 8 -22 -1 -2 0 -3 2 -1 11 7 8 31 -5 36 -11
4 -12 1 -5 -13z"/>
<path fill='pink' d="M1103 1365 c-10 -11 -9 -13 6 -12 11 1 17 7 14 14 -6 16 -5 16 -20
-2z"/>
<path fill='pink' d="M1772 1360 c0 -14 -3 -36 -7 -50 -4 -15 0 -11 10 10 13 28 18 32 26
20 7 -10 9 -11 7 -2 -2 8 -8 13 -13 12 -5 -1 -12 7 -16 17 -6 15 -8 13 -7 -7z"/>
<path fill='pink' d="M2346 1372 c-2 -4 -1 -14 4 -22 7 -11 9 -9 7 8 -1 24 -3 26 -11 14z"/>
<path fill='pink' d="M2428 1369 c6 -9 8 -20 4 -25 -4 -5 3 0 16 10 12 11 22 21 22 24 0 2
-6 0 -13 -7 -10 -8 -17 -7 -27 2 -12 10 -12 9 -2 -4z"/>
<path fill='pink' d="M610 1360 c0 -6 7 -10 15 -10 8 0 15 2 15 4 0 2 -7 6 -15 10 -8 3
-15 1 -15 -4z"/>
<path fill='pink' d="M655 1361 c-3 -6 5 -15 17 -21 21 -10 21 -10 6 3 -10 8 -15 17 -11
20 3 4 4 7 0 7 -3 0 -8 -4 -12 -9z"/>
<path fill='pink' d="M1705 1361 c-3 -5 0 -13 6 -17 7 -4 9 -3 5 4 -3 5 0 13 6 15 9 4 10
6 1 6 -6 1 -14 -3 -18 -8z"/>
<path fill='pink' d="M1933 1347 c-1 -11 -1 -18 0 -16 2 2 8 11 15 20 9 12 9 16 -1 16 -7
0 -14 -9 -14 -20z"/>
<path fill='pink' d="M2289 1353 c-13 -16 -12 -17 4 -4 9 7 17 15 17 17 0 8 -8 3 -21 -13z"/>
<path fill='pink' d="M412 1342 c-1 -10 -2 -25 -3 -35 0 -9 -4 -15 -9 -12 -8 5 -8 -2 0
-40 5 -22 -1 -27 -17 -14 -10 7 -7 1 6 -14 14 -15 25 -27 26 -27 2 0 -2 52 -5
65 -5 22 1 27 18 14 14 -11 15 -11 5 1 -7 8 -13 19 -13 26 0 19 38 24 52 7 11
-14 10 -15 -11 -8 -21 6 -22 5 -10 -8 10 -11 18 -12 27 -5 19 16 -13 47 -41
41 -16 -3 -18 -2 -9 5 11 8 11 10 0 15 -9 3 -15 -2 -16 -11z"/>
<path fill='pink' d="M551 1357 c2 -1 13 -9 24 -17 19 -14 19 -14 6 3 -7 9 -18 17 -24 17
-6 0 -8 -1 -6 -3z"/>
<path fill='pink' d="M845 1350 c-3 -6 1 -7 9 -4 18 7 21 14 7 14 -6 0 -13 -4 -16 -10z"/>
<path fill='pink' d="M1308 1353 c7 -3 16 -2 19 1 4 3 -2 6 -13 5 -11 0 -14 -3 -6 -6z"/>
<path fill='pink' d="M1567 1344 c2 -7 11 -10 19 -7 19 7 18 10 -5 16 -13 3 -18 1 -14 -9z"/>
<path fill='pink' d="M1610 1348 c0 -6 -8 -17 -17 -25 -16 -13 -16 -13 4 -3 12 5 25 15 28
20 4 6 12 7 18 4 7 -4 8 -3 4 1 -11 13 -37 15 -37 3z"/>
<path fill='pink' d="M2458 1328 c-29 -39 -41 -58 -35 -58 8 0 69 81 64 86 -2 2 -15 -10
-29 -28z"/>
<path fill='pink' d="M986 1334 c-17 -12 -17 -14 -4 -14 9 0 20 5 23 11 11 17 2 18 -19 3z"/>
<path fill='pink' d="M1964 1328 l-19 -23 23 19 c21 18 27 26 19 26 -2 0 -12 -10 -23 -22z"/>
<path fill='pink' d="M2003 1335 c0 -8 4 -12 9 -9 5 3 6 10 3 15 -9 13 -12 11 -12 -6z"/>
<path fill='pink' d="M2121 1327 c-13 -21 -12 -21 5 -5 10 10 16 20 13 22 -3 3 -11 -5 -18
-17z"/>
<path fill='pink' d="M2407 1343 c-10 -9 -9 -23 1 -23 5 0 9 7 9 15 0 17 -1 18 -10 8z"/>
<path fill='pink' d="M600 1328 c0 -5 6 -8 13 -5 6 2 23 -5 37 -17 13 -11 19 -14 13 -6 -6
8 -12 19 -12 25 -1 12 -51 15 -51 3z"/>
<path fill='pink' d="M709 1326 c9 -11 9 -15 -1 -19 -7 -3 -3 -4 9 -4 21 1 21 2 6 19 -19
21 -31 24 -14 4z"/>
<path fill='pink' d="M931 1320 c-13 -11 -18 -20 -13 -20 6 0 14 5 17 10 4 6 10 8 14 6 4
-3 8 1 8 9 0 8 -1 15 -1 15 -1 -1 -12 -10 -25 -20z"/>
<path fill='pink' d="M1085 1331 c-3 -5 -1 -12 5 -16 6 -4 8 -10 5 -15 -3 -5 0 -12 6 -16
8 -4 9 -3 5 4 -4 7 -2 13 3 13 26 3 30 4 35 10 4 3 -6 6 -21 5 -18 -1 -27 4
-25 12 2 14 -4 16 -13 3z"/>
<path fill='pink' d="M1280 1331 c0 -9 30 -24 36 -18 2 1 -6 8 -16 15 -11 7 -20 8 -20 3z"/>
<path fill='pink' d="M2026 1323 c-6 -14 -5 -15 5 -6 7 7 10 15 7 18 -3 3 -9 -2 -12 -12z"/>
<path fill='pink' d="M807 1317 c3 -5 -1 -13 -8 -18 -10 -6 -10 -9 -2 -9 7 0 17 8 22 18 7
14 6 19 -4 19 -8 0 -11 -5 -8 -10z"/>
<path fill='pink' d="M1500 1326 c0 -2 7 -7 16 -10 8 -3 12 -2 9 4 -6 10 -25 14 -25 6z"/>
<path fill='pink' d="M1552 1325 c4 -4 0 -14 -9 -20 -15 -11 -15 -13 6 -25 13 -6 21 -7 17
-2 -3 6 0 13 6 15 10 4 10 6 0 6 -7 1 -11 5 -7 10 3 5 0 13 -7 17 -7 4 -10 4
-6 -1z"/>
<path fill='pink' d="M1703 1315 c0 -8 4 -12 9 -9 5 3 6 10 3 15 -9 13 -12 11 -12 -6z"/>
<path fill='pink' d="M1880 1319 c0 -5 5 -7 10 -4 6 3 10 8 10 11 0 2 -4 4 -10 4 -5 0 -10
-5 -10 -11z"/>
<path fill='pink' d="M1012 1316 c2 -1 12 -8 22 -16 17 -13 18 -13 11 -1 -6 11 -4 13 9 8
9 -4 15 -3 12 2 -3 5 -17 9 -31 9 -14 0 -25 -1 -23 -2z"/>
<path fill='pink' d="M1377 1303 c5 -12 7 -12 14 -1 8 12 13 4 10 -14 0 -5 4 -8 9 -8 14 0
12 17 -2 27 -22 13 -37 12 -31 -4z"/>
<path fill='pink' d="M1626 1308 c5 -8 2 -9 -11 -4 -13 5 -15 3 -8 -6 6 -7 9 -21 8 -31 -5
-27 24 -33 46 -10 16 15 17 20 5 20 -8 0 -14 -5 -13 -11 1 -5 -7 -12 -18 -14
-16 -3 -17 -1 -8 8 6 7 9 19 6 28 -4 10 -2 13 5 8 7 -4 12 -3 12 2 0 6 -7 13
-16 16 -10 4 -13 2 -8 -6z"/>
<path fill='pink' d="M1794 1312 c3 -5 0 -13 -6 -15 -9 -4 -10 -6 -1 -6 17 -1 25 16 12 25
-7 4 -9 3 -5 -4z"/>
<path fill='pink' d="M1850 1310 c-9 -6 -10 -10 -3 -10 6 0 15 5 18 10 8 12 4 12 -15 0z"/>
<path fill='pink' d="M1920 1304 c0 -8 5 -12 10 -9 6 4 8 11 5 16 -9 14 -15 11 -15 -7z"/>
<path fill='pink' d="M2169 1303 c-13 -16 -12 -17 4 -4 9 7 17 15 17 17 0 8 -8 3 -21 -13z"/>
<path fill='pink' d="M579 1293 c-7 -10 -10 -15 -5 -11 13 11 48 -11 40 -24 -4 -7 -3 -8 4
-4 9 5 7 14 -4 32 -19 29 -18 28 -35 7z"/>
<path fill='pink' d="M870 1306 c0 -2 8 -10 18 -17 15 -13 16 -12 3 4 -13 16 -21 21 -21
13z"/>
<path fill='pink' d="M965 1300 c-4 -6 -11 -7 -17 -4 -7 4 -8 2 -4 -5 6 -9 12 -9 24 1 10
7 19 14 21 15 2 2 -1 3 -7 3 -6 0 -14 -5 -17 -10z"/>
<path fill='pink' d="M1490 1306 c0 -2 7 -7 16 -10 8 -3 12 -2 9 4 -6 10 -25 14 -25 6z"/>
<path fill='pink' d="M2040 1306 c0 -2 7 -7 16 -10 8 -3 12 -2 9 4 -6 10 -25 14 -25 6z"/>
<path fill='pink' d="M2379 1308 c-8 -27 -5 -36 9 -30 10 4 12 7 4 10 -7 2 -10 8 -6 13 3
5 3 9 0 9 -3 0 -6 -1 -7 -2z"/>
<path fill='pink' d="M1162 1284 c10 -10 20 -16 22 -13 3 3 -5 11 -17 18 -21 13 -21 12 -5
-5z"/>
<path fill='pink' d="M510 1278 c0 -4 6 -8 14 -8 8 0 17 4 20 8 2 4 -4 8 -15 8 -10 0 -19
-4 -19 -8z"/>
<path fill='pink' d="M924 1275 c8 -8 18 -15 22 -15 3 0 1 7 -6 15 -7 8 -17 15 -22 15 -5
0 -3 -7 6 -15z"/>
<path fill='pink' d="M1200 1275 c0 -8 4 -15 10 -15 5 0 7 7 4 15 -4 8 -8 15 -10 15 -2 0
-4 -7 -4 -15z"/>
<path fill='pink' d="M1708 1283 c7 -3 16 -2 19 1 4 3 -2 6 -13 5 -11 0 -14 -3 -6 -6z"/>
<path fill='pink' d="M1933 1275 c-4 -5 -3 -7 2 -3 4 4 15 2 23 -5 11 -8 14 -8 9 0 -4 6
-1 13 5 16 7 3 3 4 -10 4 -13 -1 -26 -6 -29 -12z"/>
<path fill='pink' d="M1994 1278 c3 -10 1 -20 -4 -23 -6 -4 -10 -11 -10 -17 0 -6 10 1 21
16 12 15 19 30 15 33 -3 4 -6 0 -6 -8 0 -12 -2 -11 -11 1 -9 13 -10 12 -5 -2z"/>
<path fill='pink' d="M2219 1273 c-13 -16 -12 -17 4 -4 16 13 21 21 13 21 -2 0 -10 -8 -17
-17z"/>
<path fill='pink' d="M486 1267 c3 -10 9 -15 12 -12 3 3 0 11 -7 18 -10 9 -11 8 -5 -6z"/>
<path fill='pink' d="M795 1270 c-4 -6 -10 -8 -14 -6 -4 3 -8 -1 -8 -8 0 -7 6 -13 14 -13
7 0 11 3 8 5 -3 3 0 11 6 19 6 7 9 13 6 13 -3 0 -9 -5 -12 -10z"/>
<path fill='pink' d="M824 1268 c2 -7 7 -13 12 -13 5 0 16 -4 24 -10 13 -8 13 -7 1 8 -7 9
-17 15 -21 12 -5 -3 -11 0 -13 5 -3 6 -4 5 -3 -2z"/>
<path fill='pink' d="M1121 1273 c-1 -17 16 -25 25 -12 4 7 3 9 -4 5 -5 -3 -13 0 -15 6 -4
9 -6 10 -6 1z"/>
<path fill='pink' d="M1765 1269 c-4 -6 -5 -12 -2 -15 2 -3 7 2 10 11 7 17 1 20 -8 4z"/>
<path fill='pink' d="M443 1258 c-11 -19 -12 -37 -3 -43 5 -3 11 -1 14 4 4 5 2 13 -4 16
-8 5 -7 11 1 21 6 8 9 14 6 14 -3 0 -9 -6 -14 -12z"/>
<path fill='pink' d="M577 1259 c7 -7 15 -10 18 -7 3 3 -2 9 -12 12 -14 6 -15 5 -6 -5z"/>
<path fill='pink' d="M651 1267 c2 -1 13 -9 24 -17 19 -14 19 -14 6 3 -7 9 -18 17 -24 17
-6 0 -8 -1 -6 -3z"/>
<path fill='pink' d="M736 1262 c-3 -5 1 -9 9 -9 8 0 12 4 9 9 -3 4 -7 8 -9 8 -2 0 -6 -4
-9 -8z"/>
<path fill='pink' d="M996 1260 c5 -8 9 -18 9 -22 0 -3 3 -9 7 -13 3 -4 5 0 4 9 -1 9 -8
22 -16 29 -10 10 -11 9 -4 -3z"/>
<path fill='pink' d="M1245 1252 c11 -11 25 -17 30 -13 6 3 19 5 30 4 16 -1 17 -1 2 3 -10
3 -14 11 -11 17 5 9 4 9 -6 0 -9 -8 -20 -9 -39 -2 -26 10 -26 10 -6 -9z"/>
<path fill='pink' d="M1465 1261 c-3 -5 -2 -12 3 -15 5 -3 9 1 9 9 0 17 -3 19 -12 6z"/>
<path fill='pink' d="M1526 1261 c-8 -12 4 -41 16 -41 6 0 5 6 -2 15 -6 8 -9 19 -5 25 3 5
4 10 1 10 -3 0 -7 -4 -10 -9z"/>
<path fill='pink' d="M1733 1258 c-15 -25 -13 -48 6 -58 15 -7 20 -6 25 7 4 9 4 18 1 21
-3 3 -5 0 -5 -6 0 -7 -7 -12 -15 -12 -16 0 -20 12 -8 24 7 7 14 36 8 36 -2 0
-7 -6 -12 -12z"/>
<path fill='pink' d="M1080 1256 c0 -3 9 -10 20 -16 11 -6 20 -8 20 -6 0 3 -9 10 -20 16
-11 6 -20 8 -20 6z"/>
<path fill='pink' d="M1493 1245 c0 -8 4 -12 9 -9 5 3 6 10 3 15 -9 13 -12 11 -12 -6z"/>
<path fill='pink' d="M1555 1251 c-9 -15 13 -23 32 -11 15 9 14 10 -6 4 -16 -4 -21 -3 -17
5 4 6 5 11 2 11 -3 0 -7 -4 -11 -9z"/>
<path fill='pink' d="M1696 1247 c3 -10 9 -15 12 -12 3 3 0 11 -7 18 -10 9 -11 8 -5 -6z"/>
<path fill='pink' d="M2047 1251 c6 -7 9 -21 6 -30 -4 -14 -3 -14 7 -1 10 13 11 11 7 -8
-6 -28 9 -20 16 9 3 11 3 18 0 15 -4 -3 -16 2 -27 11 -12 10 -16 11 -9 4z"/>
<path fill='pink' d="M2382 1230 c-13 -16 -21 -30 -19 -30 2 0 16 14 30 30 15 17 23 30 19
30 -5 0 -18 -13 -30 -30z"/>
<path fill='pink' d="M470 1234 c8 -10 15 -20 16 -22 1 -2 4 1 7 5 3 5 -4 15 -16 23 -21
12 -21 12 -7 -6z"/>
<path fill='pink' d="M564 1243 c4 -8 1 -13 -8 -13 -19 0 -21 -16 -4 -26 6 -4 8 -3 5 3
-13 22 22 21 37 0 15 -20 16 -21 7 -1 -6 11 -18 27 -27 35 -12 9 -15 9 -10 2z"/>
<path fill='pink' d="M1142 1238 c-10 -10 -7 -17 14 -34 14 -13 32 -20 41 -17 8 3 19 0 24
-8 7 -11 9 -11 9 -1 0 8 -9 16 -21 19 -16 5 -18 8 -7 15 10 8 10 9 -2 5 -8 -2
-21 5 -30 15 -12 15 -17 17 -28 6z m33 -24 l17 -27 -25 19 c-14 11 -23 22 -20
27 7 11 9 9 28 -19z"/>
<path fill='pink' d="M1951 1227 c-13 -21 -12 -21 5 -5 10 10 16 20 13 22 -3 3 -11 -5 -18
-17z"/>
<path fill='pink' d="M659 1238 c-5 -9 -5 -48 -1 -43 6 6 11 45 5 45 -2 0 -4 -1 -4 -2z"/>
<path fill='pink' d="M1226 1231 c-3 -4 1 -17 10 -27 14 -18 15 -18 5 2 -6 12 -7 24 -4 28
3 3 4 6 0 6 -3 0 -8 -4 -11 -9z"/>
<path fill='pink' d="M1443 1225 c0 -8 4 -12 9 -9 4 3 8 0 8 -5 0 -6 5 -11 10 -11 6 0 5 8
-2 20 -15 24 -25 26 -25 5z"/>
<path fill='pink' d="M1784 1226 c1 -8 5 -18 8 -22 4 -3 5 1 4 10 -1 8 -5 18 -8 22 -4 3
-5 -1 -4 -10z"/>
<path fill='pink' d="M1910 1231 c0 -7 -5 -9 -12 -5 -7 5 -8 3 -3 -5 5 -9 10 -10 18 -2 6
6 8 14 4 18 -4 3 -7 1 -7 -6z"/>
<path fill='pink' d="M2153 1233 c4 -3 -1 -16 -10 -27 -18 -21 -18 -21 4 -2 20 16 23 36 6
36 -4 0 -3 -3 0 -7z"/>
<path fill='pink' d="M726 1221 c-4 -5 3 -7 14 -4 23 6 26 13 6 13 -8 0 -17 -4 -20 -9z"/>
<path fill='pink' d="M1052 1214 c10 -10 20 -16 22 -13 3 3 -5 11 -17 18 -21 13 -21 12 -5
-5z"/>
<path fill='pink' d="M1087 1215 c3 -8 9 -12 14 -9 12 7 11 11 -5 17 -10 4 -13 1 -9 -8z"/>
<path fill='pink' d="M1306 1222 c-2 -4 4 -8 14 -8 10 0 16 4 14 8 -3 4 -9 8 -14 8 -5 0
-11 -4 -14 -8z"/>
<path fill='pink' d="M1637 1213 c3 -7 6 -13 8 -13 2 0 5 6 8 13 3 8 -1 14 -8 14 -7 0 -11
-6 -8 -14z"/>
<path fill='pink' d="M2327 1209 c-14 -20 -16 -20 -26 -2 -10 17 -10 17 -11 1 0 -10 5 -18
10 -18 6 0 5 -8 -2 -20 -8 -12 -15 -15 -19 -8 -4 6 -6 -1 -6 -16 2 -24 3 -25
15 -9 7 10 18 25 25 34 18 23 38 59 33 59 -3 0 -11 -9 -19 -21z"/>
<path fill='pink' d="M610 1216 c0 -2 8 -10 18 -17 15 -13 16 -12 3 4 -13 16 -21 21 -21
13z"/>
<path fill='pink' d="M836 1211 c3 -3 10 -6 15 -6 5 0 9 -4 8 -10 -1 -5 -6 -9 -12 -7 -7 1
-2 -6 10 -17 12 -10 19 -21 16 -25 -4 -3 -4 -6 -1 -6 3 0 11 7 18 16 8 8 9 14
4 13 -21 -4 -35 2 -29 11 4 6 12 7 18 3 7 -3 4 3 -6 14 -9 11 -24 20 -32 20
-8 0 -12 -3 -9 -6z"/>
<path fill='pink' d="M1266 1213 c-10 -10 -7 -33 4 -33 5 0 6 8 3 18 -6 15 -5 15 10 3 10
-8 19 -12 22 -10 2 3 -4 10 -14 16 -11 7 -22 9 -25 6z"/>
<path fill='pink' d="M1366 1207 c3 -10 9 -15 12 -12 3 3 0 11 -7 18 -10 9 -11 8 -5 -6z"/>
<path fill='pink' d="M2007 1202 c-15 -16 -15 -19 -2 -19 8 0 13 3 10 5 -3 3 0 11 6 19 17
20 5 16 -14 -5z"/>
<path fill='pink' d="M2226 1203 c-4 -11 -1 -11 14 -3 24 13 25 17 5 17 -8 0 -16 -6 -19
-14z"/>
<path fill='pink' d="M347 1188 c4 -19 3 -20 -6 -8 -6 8 -11 10 -11 4 0 -12 32 -44 45 -44
5 0 4 5 -3 12 -7 7 -12 20 -12 29 0 10 -4 20 -9 23 -5 4 -7 -4 -4 -16z"/>
<path fill='pink' d="M495 1200 c-4 -6 -4 -14 -1 -17 3 -4 6 -1 6 6 0 7 5 9 10 6 6 -4 7
-12 3 -18 -5 -9 -3 -9 8 0 12 10 18 10 29 0 12 -10 12 -9 1 6 -8 9 -16 15 -19
12 -3 -3 -11 0 -18 6 -8 7 -14 7 -19 -1z"/>
<path fill='pink' d="M1590 1201 c0 -6 4 -13 10 -16 6 -3 7 1 4 9 -7 18 -14 21 -14 7z"/>
<path fill='pink' d="M1870 1189 c-7 -11 -9 -23 -6 -27 3 -3 6 0 6 7 0 7 4 10 8 7 4 -2 8
4 8 15 0 24 -3 24 -16 -2z"/>
<path fill='pink' d="M770 1195 c0 -7 30 -13 34 -7 3 4 -4 9 -15 9 -10 1 -19 0 -19 -2z"/>
<path fill='pink' d="M938 1193 c6 -2 9 -10 6 -15 -4 -7 -2 -8 5 -4 13 9 5 26 -12 25 -9 0
-8 -2 1 -6z"/>
<path fill='pink' d="M995 1190 c-4 -6 -11 -7 -17 -4 -6 4 -8 2 -5 -4 7 -10 32 -11 42 0 4
3 2 9 -4 12 -5 4 -12 2 -16 -4z"/>
<path fill='pink' d="M1411 1180 c-13 -11 -18 -20 -13 -20 6 0 14 5 17 10 4 7 13 6 26 -1
11 -5 28 -8 37 -6 12 3 11 5 -5 6 -13 0 -22 6 -20 12 4 20 -17 19 -42 -1z"/>
<path fill='pink' d="M1660 1191 c0 -5 -8 -12 -17 -14 -10 -3 -6 -4 8 -4 18 1 25 6 22 14
-6 15 -13 17 -13 4z"/>
<path fill='pink' d="M1800 1185 c-8 -9 -8 -15 -2 -15 12 0 26 19 19 26 -2 2 -10 -2 -17
-11z"/>
<path fill='pink' d="M1840 1185 c-7 -9 -11 -17 -9 -20 3 -2 10 5 17 15 14 24 10 26 -8 5z"/>
<path fill='pink' d="M1320 1181 c0 -5 7 -12 16 -15 14 -5 15 -4 4 9 -14 17 -20 19 -20 6z"/>
<path fill='pink' d="M1710 1179 c0 -5 -6 -7 -12 -3 -9 5 -9 2 1 -9 7 -9 10 -17 5 -17 -5
0 -1 -5 9 -11 10 -6 14 -15 10 -22 -4 -7 0 -6 10 2 18 14 23 26 8 16 -12 -7
-30 25 -24 43 3 6 2 12 -1 12 -3 0 -6 -5 -6 -11z"/>
<path fill='pink' d="M1744 1171 c20 -22 26 -25 26 -13 0 4 -10 13 -22 21 -23 14 -23 14
-4 -8z"/>
<path fill='pink' d="M2070 1175 c-7 -9 -11 -17 -9 -20 3 -2 10 5 17 15 14 24 10 26 -8 5z"/>
<path fill='pink' d="M2345 1179 c-4 -6 -5 -12 -2 -15 2 -3 7 2 10 11 7 17 1 20 -8 4z"/>
<path fill='pink' d="M400 1176 c0 -2 7 -7 16 -10 8 -3 12 -2 9 4 -6 10 -25 14 -25 6z"/>
<path fill='pink' d="M730 1176 c0 -2 7 -7 16 -10 8 -3 12 -2 9 4 -6 10 -25 14 -25 6z"/>
<path fill='pink' d="M1038 1173 c6 -3 9 -9 6 -15 -4 -5 4 -5 16 2 17 9 24 9 30 1 4 -7 13
-11 21 -9 8 2 13 -3 11 -12 -2 -8 0 -12 4 -8 4 4 14 2 23 -4 9 -7 5 0 -8 14
-13 15 -26 27 -30 26 -3 0 -8 1 -11 2 -3 1 -21 3 -40 5 -19 1 -29 0 -22 -2z"/>
<path fill='pink' d="M1360 1170 c0 -5 5 -10 11 -10 5 0 7 5 4 10 -3 6 -8 10 -11 10 -2 0
-4 -4 -4 -10z"/>
<path fill='pink' d="M1576 1172 c-3 -5 1 -9 9 -9 8 0 12 4 9 9 -3 4 -7 8 -9 8 -2 0 -6 -4
-9 -8z"/>
<path fill='pink' d="M2137 1163 c4 -10 2 -14 -4 -10 -5 3 -10 0 -10 -8 0 -10 4 -12 12 -5
7 5 14 7 18 4 3 -3 3 3 0 15 -3 12 -9 21 -14 21 -5 0 -5 -7 -2 -17z"/>
<path fill='pink' d="M1259 1161 c11 -7 11 -10 0 -14 -10 -4 -8 -6 3 -4 9 1 16 -2 15 -8
-1 -5 -9 -9 -17 -7 -10 1 -9 -2 4 -11 10 -6 31 -22 46 -34 15 -13 32 -23 36
-23 5 0 1 5 -10 11 -15 9 -16 13 -5 20 10 6 5 10 -18 15 -18 4 -30 10 -28 15
3 4 13 6 23 2 11 -3 9 1 -6 11 -12 10 -20 21 -18 25 3 4 -5 8 -17 8 -15 2 -18
0 -8 -6z"/>
<path fill='pink' d="M1300 1166 c0 -2 8 -10 18 -17 15 -13 16 -12 3 4 -13 16 -21 21 -21
13z"/>
<path fill='pink' d="M1613 1148 c-2 -16 0 -19 6 -9 7 11 11 10 18 -4 7 -12 13 -14 17 -6
4 6 1 11 -6 11 -10 0 -9 3 2 11 13 9 13 10 -1 6 -9 -3 -21 -1 -26 4 -5 5 -9 0
-10 -13z"/>
<path fill='pink' d="M624 1149 c-8 -14 14 -19 25 -6 8 10 7 14 -5 14 -8 0 -17 -4 -20 -8z"/>
<path fill='pink' d="M909 1143 c-12 -16 -12 -17 2 -6 10 8 19 9 25 3 7 -7 17 -5 30 6 19
15 18 15 -2 5 -14 -7 -24 -7 -31 0 -6 6 -15 4 -24 -8z"/>
<path fill='pink' d="M1002 1146 c7 -8 15 -12 17 -11 5 6 -10 25 -20 25 -5 0 -4 -6 3 -14z"/>
<path fill='pink' d="M1215 1150 c-3 -6 1 -7 9 -4 18 7 21 14 7 14 -6 0 -13 -4 -16 -10z"/>
<path fill='pink' d="M1500 1154 c0 -5 7 -18 15 -28 8 -11 15 -16 15 -10 0 5 -7 18 -15 28
-8 11 -15 16 -15 10z"/>
<path fill='pink' d="M2080 1144 c0 -8 5 -12 10 -9 6 4 8 11 5 16 -9 14 -15 11 -15 -7z"/>
<path fill='pink' d="M513 1136 c1 -14 10 -20 29 -21 15 -1 25 2 23 6 -3 4 -13 6 -23 5 -9
-2 -20 4 -24 13 -6 13 -7 12 -5 -3z"/>
<path fill='pink' d="M806 1142 c-3 -5 1 -9 9 -9 8 0 12 4 9 9 -3 4 -7 8 -9 8 -2 0 -6 -4
-9 -8z"/>
<path fill='pink' d="M1339 1134 c-7 -8 -6 -15 2 -20 7 -4 9 -3 5 4 -3 6 -2 13 4 17 5 3
11 1 11 -4 5 -37 16 -51 39 -48 24 4 39 17 19 17 -9 0 -24 7 -35 15 -16 13
-17 16 -4 24 12 8 10 10 -8 8 -13 -1 -28 -7 -33 -13z m56 -42 c-3 -3 -11 0
-18 7 -9 10 -8 11 6 5 10 -3 15 -9 12 -12z"/>
<path fill='pink' d="M1440 1146 c0 -2 8 -10 18 -17 15 -13 16 -12 3 4 -13 16 -21 21 -21
13z"/>
<path fill='pink' d="M1570 1140 c-9 -6 -10 -10 -3 -10 6 0 15 5 18 10 8 12 4 12 -15 0z"/>
<path fill='pink' d="M1805 1140 c-4 -6 -11 -7 -17 -4 -7 4 -8 2 -4 -5 6 -9 11 -9 22 0 14
11 18 19 10 19 -3 0 -8 -5 -11 -10z"/>
<path fill='pink' d="M2313 1138 c-15 -20 -25 -38 -20 -38 3 0 12 11 21 25 17 26 16 35 -1
13z"/>
<path fill='pink' d="M660 1136 c0 -2 8 -10 18 -17 15 -13 16 -12 3 4 -13 16 -21 21 -21
13z"/>
<path fill='pink' d="M1037 1125 c-4 -8 -3 -16 1 -19 4 -3 9 4 9 15 2 23 -3 25 -10 4z"/>
<path fill='pink' d="M1170 1131 c0 -5 7 -12 16 -15 14 -5 15 -4 4 9 -14 17 -20 19 -20 6z"/>
<path fill='pink' d="M1222 1131 c-11 -7 -11 -9 0 -14 9 -3 15 1 15 9 0 8 -1 14 -1 14 -1
0 -7 -4 -14 -9z"/>
<path fill='pink' d="M1427 1119 c12 -12 24 -21 27 -18 2 2 -8 13 -22 23 l-27 19 22 -24z"/>
<path fill='pink' d="M1822 1125 c-7 -8 -9 -15 -4 -15 5 0 15 7 22 15 16 19 -1 19 -18 0z"/>
<path fill='pink' d="M710 1120 c-15 -10 -14 -11 28 -15 18 -2 20 0 11 11 -13 16 -19 17
-39 4z"/>
<path fill='pink' d="M1102 1116 c7 -8 15 -12 17 -11 5 6 -10 25 -20 25 -5 0 -4 -6 3 -14z"/>
<path fill='pink' d="M1580 1120 c-9 -6 -10 -10 -3 -10 6 0 15 5 18 10 8 12 4 12 -15 0z"/>
<path fill='pink' d="M443 1105 c0 -8 4 -12 9 -9 5 3 6 10 3 15 -9 13 -12 11 -12 -6z"/>
<path fill='pink' d="M606 1112 c-2 -4 8 -7 22 -6 37 2 45 -5 30 -24 -12 -15 -11 -16 5 -3
11 9 14 17 8 25 -11 13 -58 19 -65 8z"/>
<path fill='pink' d="M909 1103 c-12 -16 -12 -17 2 -6 12 10 18 10 29 0 12 -10 12 -9 1 6
-7 9 -15 17 -16 17 -1 0 -9 -8 -16 -17z"/>
<path fill='pink' d="M1011 1103 c7 -12 15 -20 18 -17 3 2 -3 12 -13 22 -17 16 -18 16 -5
-5z"/>
<path fill='pink' d="M1495 1111 c-3 -5 -2 -12 3 -15 5 -3 9 1 9 9 0 17 -3 19 -12 6z"/>
<path fill='pink' d="M1606 1111 c-3 -5 1 -14 8 -20 10 -9 16 -9 21 -1 4 6 3 10 -2 9 -20
-3 -27 2 -13 11 9 6 10 10 3 10 -6 0 -14 -4 -17 -9z"/>
<path fill='pink' d="M1663 1105 c0 -8 4 -12 9 -9 4 3 8 9 8 15 0 5 -4 9 -8 9 -5 0 -9 -7
-9 -15z"/>
<path fill='pink' d="M1955 1110 c-4 -6 -10 -8 -14 -6 -3 3 -7 -4 -7 -15 0 -16 2 -18 11
-7 5 8 17 13 25 12 9 0 10 1 2 3 -7 3 -10 9 -7 14 4 5 4 9 1 9 -3 0 -8 -5 -11
-10z"/>
<path fill='pink' d="M2020 1116 c0 -2 8 -10 18 -17 15 -13 16 -12 3 4 -13 16 -21 21 -21
13z"/>
<path fill='pink' d="M500 1106 c0 -4 7 -14 15 -22 8 -9 15 -11 15 -6 0 5 -7 15 -15 22 -8
7 -15 9 -15 6z"/>
<path fill='pink' d="M1773 1090 c3 -16 11 -26 23 -27 16 -2 16 -1 1 3 -9 3 -15 9 -13 13
3 4 0 13 -5 21 -7 11 -8 8 -6 -10z"/>
<path fill='pink' d="M551 1085 c9 -11 22 -29 28 -40 13 -20 13 -20 6 0 -4 11 -8 26 -8 33
0 6 -3 10 -5 7 -3 -3 -12 1 -21 7 -14 11 -14 11 0 -7z"/>
<path fill='pink' d="M964 1093 c4 -4 16 -8 28 -10 28 -4 18 6 -12 12 -12 2 -20 1 -16 -2z"/>
<path fill='pink' d="M1065 1091 c4 -8 2 -17 -6 -22 -9 -6 -10 -9 -2 -9 19 0 27 21 13 33
-10 9 -11 9 -5 -2z"/>
<path fill='pink' d="M1205 1091 c3 -6 -2 -14 -10 -19 -13 -7 -12 -10 10 -20 15 -7 25 -8
25 -2 0 6 -8 10 -17 10 -17 1 -17 1 0 14 16 12 16 14 2 20 -9 3 -13 2 -10 -3z"/>
<path fill='pink' d="M1244 1086 c1 -8 5 -18 8 -22 4 -3 5 1 4 10 -1 8 -5 18 -8 22 -4 3
-5 -1 -4 -10z"/>
<path fill='pink' d="M1810 1090 c-13 -8 -12 -10 3 -10 9 0 17 5 17 10 0 12 -1 12 -20 0z"/>
<path fill='pink' d="M2240 1091 c0 -7 -5 -9 -12 -5 -7 5 -8 3 -3 -5 5 -9 10 -10 18 -2 6
6 8 14 4 18 -4 3 -7 1 -7 -6z"/>
<path fill='pink' d="M768 1074 c12 -8 19 -20 16 -26 -5 -7 -2 -8 5 -4 9 6 8 13 -5 27 -9
10 -22 19 -28 19 -6 0 0 -7 12 -16z"/>
<path fill='pink' d="M1126 1082 c-4 -7 -12 -9 -18 -6 -7 5 -8 2 -3 -6 4 -7 2 -16 -5 -20
-7 -5 -2 -7 15 -7 18 0 23 2 14 8 -7 4 -10 11 -6 15 3 4 12 2 20 -4 10 -8 13
-6 14 11 2 15 0 18 -6 8 -7 -11 -9 -11 -13 0 -3 10 -6 10 -12 1z"/>
<path fill='pink' d="M1445 1081 c-6 -11 13 -26 22 -17 4 3 1 6 -6 6 -7 0 -9 5 -6 10 3 6
4 10 1 10 -3 0 -7 -4 -11 -9z"/>
<path fill='pink' d="M1738 1068 c2 -10 6 -18 7 -18 1 0 5 8 7 18 3 11 0 19 -7 19 -7 0
-10 -8 -7 -19z"/>
<path fill='pink' d="M2135 1080 c-3 -6 1 -7 9 -4 18 7 21 14 7 14 -6 0 -13 -4 -16 -10z"/>
<path fill='pink' d="M2261 1067 c-13 -21 -12 -21 5 -5 10 10 16 20 13 22 -3 3 -11 -5 -18
-17z"/>
<path fill='pink' d="M620 1070 c0 -5 5 -10 11 -10 5 0 7 5 4 10 -3 6 -8 10 -11 10 -2 0
-4 -4 -4 -10z"/>
<path fill='pink' d="M890 1064 c0 -8 5 -12 10 -9 6 4 8 11 5 16 -9 14 -15 11 -15 -7z"/>
<path fill='pink' d="M1515 1070 c3 -5 8 -10 11 -10 2 0 4 5 4 10 0 6 -5 10 -11 10 -5 0
-7 -4 -4 -10z"/>
<path fill='pink' d="M1546 1068 c3 -5 10 -6 15 -3 13 9 11 12 -6 12 -8 0 -12 -4 -9 -9z"/>
<path fill='pink' d="M1594 1066 c1 -8 5 -18 8 -22 4 -3 5 1 4 10 -1 8 -5 18 -8 22 -4 3
-5 -1 -4 -10z"/>
<path fill='pink' d="M1630 1068 c-13 -8 -12 -9 2 -5 9 3 19 1 21 -6 2 -7 7 -9 11 -6 13
12 -19 28 -34 17z"/>
<path fill='pink' d="M1901 1066 c-9 -11 -9 -16 1 -22 7 -4 10 -4 6 1 -4 4 -3 14 3 22 6 7
9 13 6 13 -2 0 -10 -6 -16 -14z"/>
<path fill='pink' d="M2086 1072 c-3 -5 1 -9 9 -9 8 0 12 4 9 9 -3 4 -7 8 -9 8 -2 0 -6 -4
-9 -8z"/>
<path fill='pink' d="M476 1058 c9 -13 10 -18 13 -38 0 -5 9 -10 19 -10 15 1 15 2 -2 11
-12 7 -14 14 -8 18 7 4 3 12 -9 20 -17 10 -20 10 -13 -1z"/>
<path fill='pink' d="M601 1053 c7 -12 15 -20 18 -17 3 2 -3 12 -13 22 -17 16 -18 16 -5
-5z"/>
<path fill='pink' d="M835 1052 c1 -9 -3 -20 -9 -24 -6 -4 -1 -6 11 -5 12 0 20 4 17 8 -2
4 0 9 6 11 6 2 2 8 -9 15 -16 10 -19 9 -16 -5z"/>
<path fill='pink' d="M1423 1052 c9 -10 14 -22 10 -27 -5 -4 -3 -5 4 -1 15 8 7 32 -15 41
-14 5 -14 4 1 -13z"/>
<path fill='pink' d="M2170 1061 c0 -6 4 -13 10 -16 6 -3 7 1 4 9 -7 18 -14 21 -14 7z"/>
<path fill='pink' d="M990 1050 c-9 -6 -10 -10 -3 -10 6 0 15 5 18 10 8 12 4 12 -15 0z"/>
<path fill='pink' d="M1264 1048 c-8 -12 15 -47 39 -59 18 -10 17 -7 -5 14 -25 23 -40 55
-20 43 4 -2 14 -1 22 4 11 7 9 9 -8 7 -13 -1 -26 -5 -28 -9z"/>
<path fill='pink' d="M1385 1036 c8 -13 12 -26 8 -30 -4 -4 1 -4 12 0 11 5 14 9 7 12 -7 2
-12 8 -12 13 0 6 6 7 13 3 9 -5 9 -4 0 6 -7 8 -19 15 -28 16 -12 2 -12 -1 0
-20z"/>
<path fill='pink' d="M905 1040 c-4 -6 -11 -7 -17 -4 -7 4 -8 2 -4 -5 6 -9 11 -9 22 0 14
11 18 19 10 19 -3 0 -8 -5 -11 -10z"/>
<path fill='pink' d="M1032 1041 c-10 -6 -9 -10 7 -14 12 -3 24 0 28 5 3 6 1 8 -5 4 -5 -3
-12 -2 -14 4 -2 5 -9 6 -16 1z"/>
<path fill='pink' d="M1164 1038 c-3 -5 -3 -12 0 -15 3 -4 6 -1 6 7 0 10 3 10 15 0 8 -6
19 -10 24 -8 6 1 -1 8 -14 15 -16 7 -27 8 -31 1z"/>
<path fill='pink' d="M1553 1035 c0 -8 4 -12 9 -9 5 3 6 10 3 15 -9 13 -12 11 -12 -6z"/>
<path fill='pink' d="M1630 1040 c0 -5 6 -10 13 -10 9 0 8 -3 -2 -9 -7 -5 -9 -11 -5 -14 5
-3 14 1 20 7 9 10 7 16 -7 24 -12 8 -19 8 -19 2z"/>
<path fill='pink' d="M1832 1041 c-11 -7 -11 -9 0 -14 9 -3 15 1 15 9 0 8 -1 14 -1 14 -1
0 -7 -4 -14 -9z"/>
<path fill='pink' d="M526 1028 c3 -5 10 -6 15 -3 13 9 11 12 -6 12 -8 0 -12 -4 -9 -9z"/>
<path fill='pink' d="M1359 1033 c-1 -5 -1 -11 0 -15 0 -5 -3 -8 -8 -8 -5 0 -12 -7 -15
-16 -4 -10 -2 -13 7 -7 6 4 15 8 20 9 4 1 10 2 13 3 4 0 1 7 -5 14 -6 8 -8 17
-4 20 3 4 3 7 0 7 -4 0 -8 -3 -8 -7z"/>
<path fill='pink' d="M1580 1031 c0 -6 4 -13 10 -16 6 -3 7 1 4 9 -7 18 -14 21 -14 7z"/>
<path fill='pink' d="M1863 1025 c0 -8 4 -12 9 -9 5 3 6 10 3 15 -9 13 -12 11 -12 -6z"/>
<path fill='pink' d="M2111 1026 c-9 -11 -9 -16 1 -22 7 -4 10 -4 6 1 -4 4 -3 14 3 22 6 7
9 13 6 13 -2 0 -10 -6 -16 -14z"/>
<path fill='pink' d="M2223 1018 c-32 -36 -104 -138 -98 -138 10 0 30 23 50 58 11 17 23
32 27 32 4 0 8 5 8 12 0 6 10 22 22 35 12 13 19 23 16 23 -2 0 -14 -10 -25
-22z"/>
<path fill='pink' d="M1790 1015 c-11 -13 -10 -14 4 -9 9 3 16 10 16 15 0 13 -6 11 -20 -6z"/>
<path fill='pink' d="M1981 1014 c0 -11 3 -14 6 -6 3 7 2 16 -1 19 -3 4 -6 -2 -5 -13z"/>
<path fill='pink' d="M590 996 c36 -24 60 -25 40 -1 -6 8 -17 12 -25 9 -7 -3 -16 -1 -20 5
-3 6 -11 11 -18 11 -6 0 4 -11 23 -24z"/>
<path fill='pink' d="M667 1009 c7 -7 15 -10 18 -7 3 3 -2 9 -12 12 -14 6 -15 5 -6 -5z"/>
<path fill='pink' d="M705 990 c0 -15 5 -27 12 -27 8 0 9 6 3 17 -6 10 -5 21 1 27 6 6 5
10 -4 10 -7 0 -13 -11 -12 -27z"/>
<path fill='pink' d="M1230 1011 c0 -5 5 -13 10 -16 6 -3 10 -2 10 4 0 5 -4 13 -10 16 -5
3 -10 2 -10 -4z"/>
<path fill='pink' d="M1926 1003 c-4 -9 -4 -14 0 -10 4 4 14 1 23 -6 14 -11 15 -10 1 8 -8
11 -15 21 -16 23 -1 2 -5 -5 -8 -15z"/>
<path fill='pink' d="M2006 1007 c3 -10 9 -15 12 -12 3 3 0 11 -7 18 -10 9 -11 8 -5 -6z"/>
<path fill='pink' d="M2067 1013 c-4 -3 -7 -15 -7 -26 0 -25 9 -17 15 12 4 22 2 25 -8 14z"/>
<path fill='pink' d="M1175 1001 c-3 -5 -2 -12 3 -15 5 -3 9 1 9 9 0 17 -3 19 -12 6z"/>
<path fill='pink' d="M1621 993 c7 -12 15 -20 18 -17 3 2 -3 12 -13 22 -17 16 -18 16 -5
-5z"/>
<path fill='pink' d="M1690 1000 c0 -5 9 -8 20 -7 21 1 18 10 -5 13 -8 1 -15 -2 -15 -6z"/>
<path fill='pink' d="M735 990 c3 -5 8 -10 11 -10 2 0 4 5 4 10 0 6 -5 10 -11 10 -5 0 -7
-4 -4 -10z"/>
<path fill='pink' d="M766 992 c-3 -5 1 -9 9 -9 8 0 12 4 9 9 -3 4 -7 8 -9 8 -2 0 -6 -4
-9 -8z"/>
<path fill='pink' d="M886 987 c3 -10 9 -15 12 -12 3 3 0 11 -7 18 -10 9 -11 8 -5 -6z"/>
<path fill='pink' d="M955 990 c3 -5 8 -10 11 -10 2 0 4 5 4 10 0 6 -5 10 -11 10 -5 0 -7
-4 -4 -10z"/>
<path fill='pink' d="M1060 993 c5 -2 8 -8 5 -13 -6 -10 37 -39 64 -43 11 -2 29 -14 41
-28 l22 -24 -21 32 c-26 38 -27 50 -3 32 15 -13 16 -12 3 4 -16 21 -28 22 -33
2 -3 -12 -7 -12 -35 1 -18 9 -31 21 -30 26 1 6 -4 12 -11 14 -7 1 -8 0 -2 -3z"/>
<path fill='pink' d="M1836 987 c3 -10 9 -15 12 -12 3 3 0 11 -7 18 -10 9 -11 8 -5 -6z"/>
<path fill='pink' d="M800 986 c0 -3 9 -10 19 -16 15 -7 22 -7 27 2 4 7 4 10 -1 6 -4 -4
-16 -3 -26 3 -11 5 -19 7 -19 5z"/>
<path fill='pink' d="M983 972 c0 -11 5 -18 10 -15 4 2 14 -1 22 -7 8 -7 15 -9 15 -5 0 3
12 -3 26 -14 15 -12 32 -21 38 -21 6 0 -4 9 -22 20 -17 11 -34 19 -36 17 -3
-1 -16 9 -30 22 -24 23 -25 23 -23 3z"/>
<path fill='pink' d="M1106 982 c-3 -5 1 -9 9 -9 8 0 12 4 9 9 -3 4 -7 8 -9 8 -2 0 -6 -4
-9 -8z"/>
<path fill='pink' d="M1200 987 c0 -2 6 -10 14 -16 11 -9 16 -9 22 1 4 7 4 10 -1 6 -4 -4
-14 -3 -22 3 -7 6 -13 9 -13 6z"/>
<path fill='pink' d="M1780 985 c0 -5 5 -17 10 -25 5 -8 10 -10 10 -5 0 6 -5 17 -10 25 -5
8 -10 11 -10 5z"/>
<path fill='pink' d="M2090 986 c0 -2 8 -10 18 -17 15 -13 16 -12 3 4 -13 16 -21 21 -21
13z"/>
<path fill='pink' d="M2156 974 c-5 -14 -4 -15 9 -4 17 14 19 20 6 20 -5 0 -12 -7 -15 -16z"/>
<path fill='pink' d="M1266 965 c-11 -8 -15 -15 -9 -15 7 0 15 5 18 10 4 6 11 7 17 4 7 -4
8 -2 4 4 -9 14 -7 15 -30 -3z"/>
<path fill='pink' d="M1371 959 c13 -10 31 -18 39 -18 9 0 5 5 -9 13 -17 10 -20 15 -10 18
8 3 1 5 -15 5 l-29 1 24 -19z"/>
<path fill='pink' d="M1815 970 c3 -5 8 -10 11 -10 2 0 4 5 4 10 0 6 -5 10 -11 10 -5 0 -7
-4 -4 -10z"/>
<path fill='pink' d="M1916 968 c3 -5 10 -6 15 -3 13 9 11 12 -6 12 -8 0 -12 -4 -9 -9z"/>
<path fill='pink' d="M630 958 c-13 -8 -12 -9 1 -5 9 3 21 1 27 -5 6 -6 12 -5 17 4 5 7 5
10 0 6 -4 -4 -13 -4 -19 2 -7 5 -17 5 -26 -2z"/>
<path fill='pink' d="M945 960 c3 -5 8 -10 11 -10 2 0 4 5 4 10 0 6 -5 10 -11 10 -5 0 -7
-4 -4 -10z"/>
<path fill='pink' d="M1496 962 c-3 -5 1 -9 9 -9 8 0 12 4 9 9 -3 4 -7 8 -9 8 -2 0 -6 -4
-9 -8z"/>
<path fill='pink' d="M1750 960 c-9 -6 -10 -10 -3 -10 6 0 15 5 18 10 8 12 4 12 -15 0z"/>
<path fill='pink' d="M2001 954 c0 -11 3 -14 6 -6 3 7 2 16 -1 19 -3 4 -6 -2 -5 -13z"/>
<path fill='pink' d="M922 946 c7 -8 15 -12 17 -11 5 6 -10 25 -20 25 -5 0 -4 -6 3 -14z"/>
<path fill='pink' d="M1566 945 c4 -8 8 -15 10 -15 2 0 4 7 4 15 0 8 -4 15 -10 15 -5 0 -7
-7 -4 -15z"/>
<path fill='pink' d="M1620 956 c0 -2 8 -10 18 -17 15 -13 16 -12 3 4 -13 16 -21 21 -21
13z"/>
<path fill='pink' d="M1805 941 c-3 -5 -2 -12 3 -15 5 -3 9 1 9 9 0 17 -3 19 -12 6z"/>
<path fill='pink' d="M2044 939 c-3 -6 -2 -15 3 -20 5 -5 9 -1 9 11 0 23 -2 24 -12 9z"/>
<path fill='pink' d="M1445 922 c22 -26 26 -52 10 -65 -6 -5 -4 -7 4 -5 24 7 19 46 -8 70
l-26 23 20 -23z"/>
<path fill='pink' d="M1501 937 c2 -1 15 -11 29 -22 l25 -20 -19 23 c-11 12 -24 22 -29 22
-6 0 -8 -1 -6 -3z"/>
<path fill='pink' d="M1598 935 c-3 -6 6 -19 21 -30 16 -11 21 -13 14 -4 -7 9 -9 20 -5 24
4 5 2 5 -5 2 -6 -4 -13 -2 -15 5 -3 7 -7 8 -10 3z"/>
<path fill='pink' d="M1735 931 c3 -5 -1 -11 -7 -14 -7 -3 -3 -4 10 -4 25 1 29 12 6 21 -8
3 -13 2 -9 -3z"/>
<path fill='pink' d="M1919 923 c-12 -16 -12 -17 2 -6 9 7 20 9 24 5 5 -4 5 -1 1 6 -9 16
-11 15 -27 -5z"/>
<path fill='pink' d="M1964 918 l-19 -23 23 19 c21 18 27 26 19 26 -2 0 -12 -10 -23 -22z"/>
<path fill='pink' d="M817 910 c3 -11 9 -20 15 -20 5 0 4 9 -2 20 -6 11 -12 20 -14 20 -2
0 -2 -9 1 -20z"/>
<path fill='pink' d="M870 920 c8 -6 24 -15 35 -21 16 -8 15 -6 -4 10 -13 12 -28 21 -35
21 -6 0 -4 -5 4 -10z"/>
<path fill='pink' d="M985 920 c-3 -5 -1 -10 4 -10 6 0 11 5 11 10 0 6 -2 10 -4 10 -3 0
-8 -4 -11 -10z"/>
<path fill='pink' d="M1117 919 c7 -9 10 -19 6 -23 -4 -4 1 -4 10 0 10 3 17 7 15 8 -2 1
-12 8 -23 16 -18 14 -19 13 -8 -1z"/>
<path fill='pink' d="M1192 910 c14 -22 24 -19 15 5 -4 8 -11 15 -17 15 -6 0 -6 -7 2 -20z"/>
<path fill='pink' d="M1293 913 c0 -9 4 -10 14 -2 7 6 13 12 13 14 0 1 -6 2 -13 2 -8 0
-14 -6 -14 -14z"/>
<path fill='pink' d="M1400 905 c14 -17 26 -32 27 -34 1 -2 1 6 0 17 0 12 -3 19 -6 17 -2
-3 -14 3 -25 12 -16 13 -14 10 4 -12z"/>
<path fill='pink' d="M1557 919 c8 -8 9 -17 3 -24 -6 -7 -2 -11 13 -12 15 -2 18 0 8 6 -11
7 -11 9 0 13 9 3 6 9 -11 18 -20 10 -23 10 -13 -1z"/>
<path fill='pink' d="M1654 918 c-4 -7 -4 -10 1 -6 4 4 15 2 24 -5 14 -11 14 -10 2 6 -16
20 -18 21 -27 5z"/>
<path fill='pink' d="M1023 897 c-9 -18 -8 -24 2 -24 8 0 11 7 7 15 -3 10 -1 13 6 8 8 -5
10 -2 6 8 -8 21 -9 20 -21 -7z"/>
<path fill='pink' d="M1227 909 c7 -7 15 -10 18 -7 3 3 -2 9 -12 12 -14 6 -15 5 -6 -5z"/>
<path fill='pink' d="M2106 903 c-6 -14 -5 -15 5 -6 7 7 10 15 7 18 -3 3 -9 -2 -12 -12z"/>
<path fill='pink' d="M935 890 c3 -4 14 -10 25 -13 11 -3 18 -2 15 3 -3 4 -14 10 -25 13
-11 3 -18 2 -15 -3z"/>
<path fill='pink' d="M1065 890 c3 -5 1 -11 -5 -15 -6 -4 -8 -10 -5 -15 3 -5 -3 -13 -12
-19 -10 -6 -13 -11 -6 -11 13 0 28 19 28 35 0 6 6 10 13 10 19 0 19 18 -1 21
-9 1 -15 -2 -12 -6z"/>
<path fill='pink' d="M1497 885 c-4 -8 -2 -17 2 -20 5 -3 8 -13 6 -23 -1 -9 0 -11 2 -4 3
6 9 12 14 12 5 0 9 5 9 10 0 6 -6 9 -12 8 -7 -2 -12 5 -10 15 4 21 -4 23 -11
2z"/>
<path fill='pink' d="M1653 887 c0 -8 6 -14 14 -14 9 0 10 4 2 14 -6 7 -12 13 -14 13 -1 0
-2 -6 -2 -13z"/>
<path fill='pink' d="M1746 874 c-18 -25 -18 -25 3 -12 12 7 21 18 21 25 0 18 -2 16 -24
-13z"/>
<path fill='pink' d="M1850 874 c-6 -15 -14 -22 -22 -18 -7 4 -8 3 -4 -5 10 -15 32 1 39
29 7 29 -2 25 -13 -6z"/>
<path fill='pink' d="M1287 876 c-4 -11 -1 -13 10 -9 12 5 14 3 8 -7 -5 -9 -4 -11 4 -6 9
6 9 11 0 22 -14 17 -16 17 -22 0z"/>
<path fill='pink' d="M1361 885 c-2 -24 14 -33 29 -17 13 14 12 15 -2 9 -9 -3 -19 -1 -22
6 -2 7 -5 8 -5 2z"/>
<path fill='pink' d="M2040 881 c0 -7 -4 -10 -9 -6 -5 3 -12 1 -16 -5 -4 -6 -11 -7 -17 -4
-7 4 -8 2 -4 -5 4 -6 12 -8 18 -5 6 4 8 -2 3 -17 -5 -18 -1 -15 15 10 11 18
19 36 16 39 -4 3 -6 0 -6 -7z"/>
<path fill='pink' d="M1131 866 c-9 -11 -9 -16 1 -22 7 -4 10 -4 6 1 -4 4 -3 14 3 22 6 7
9 13 6 13 -2 0 -10 -6 -16 -14z"/>
<path fill='pink' d="M1156 863 c-6 -14 -5 -15 5 -6 7 7 10 15 7 18 -3 3 -9 -2 -12 -12z"/>
<path fill='pink' d="M1610 870 c0 -6 7 -10 15 -10 8 0 15 2 15 4 0 2 -7 6 -15 10 -8 3
-15 1 -15 -4z"/>
<path fill='pink' d="M2060 870 c0 -5 5 -10 11 -10 5 0 7 5 4 10 -3 6 -8 10 -11 10 -2 0
-4 -4 -4 -10z"/>
<path fill='pink' d="M1263 851 c2 -11 7 -24 12 -28 4 -5 5 -3 2 4 -4 6 -3 13 2 15 5 1 3
9 -5 16 -12 11 -13 9 -11 -7z"/>
<path fill='pink' d="M1597 845 c10 -13 22 -25 27 -25 5 0 -1 11 -14 25 -30 32 -36 32 -13
0z"/>
<path fill='pink' d="M2096 853 c-3 -10 -20 -33 -38 -52 -17 -19 -26 -32 -19 -30 17 6 86
99 73 99 -6 0 -13 -8 -16 -17z"/>
<path fill='pink' d="M1090 845 c-11 -13 -10 -14 4 -9 9 3 16 10 16 15 0 13 -6 11 -20 -6z"/>
<path fill='pink' d="M1175 851 c-3 -5 -2 -12 3 -15 5 -3 9 1 9 9 0 17 -3 19 -12 6z"/>
<path fill='pink' d="M1226 852 c-3 -5 1 -9 9 -9 8 0 15 4 15 9 0 4 -4 8 -9 8 -6 0 -12 -4
-15 -8z"/>
<path fill='pink' d="M1546 848 c3 -5 10 -6 15 -3 13 9 11 12 -6 12 -8 0 -12 -4 -9 -9z"/>
<path fill='pink' d="M1683 846 c8 -20 -4 -28 -20 -15 -7 6 -13 10 -14 8 -6 -32 -5 -36 10
-35 9 0 15 -5 13 -12 -1 -8 2 -11 8 -7 6 4 9 13 6 21 -6 16 5 18 22 4 6 -6 10
-7 7 -4 -3 4 1 14 8 23 11 14 10 14 -5 2 -18 -13 -24 -7 -19 22 0 4 -4 7 -10
7 -6 0 -9 -6 -6 -14z"/>
<path fill='pink' d="M1895 851 c-3 -5 -2 -12 3 -15 5 -3 9 1 9 9 0 17 -3 19 -12 6z"/>
<path fill='pink' d="M1359 838 c11 -15 41 -15 41 -1 0 3 -6 3 -14 0 -7 -3 -20 0 -27 6
-11 10 -11 9 0 -5z"/>
<path fill='pink' d="M1840 830 c-24 -19 -24 -19 -2 -13 12 3 22 10 22 16 0 5 10 2 23 -9
l22 -19 -19 23 c-11 12 -20 22 -20 22 -1 0 -12 -9 -26 -20z"/>
<path fill='pink' d="M2048 839 c-20 -11 -24 -29 -6 -29 6 0 8 3 5 7 -4 3 1 12 11 19 20
16 14 18 -10 3z"/>
<path fill='pink' d="M977 823 c9 -7 21 -13 26 -13 4 0 5 -4 2 -10 -4 -6 1 -7 11 -3 15 5
15 7 0 15 -9 5 -15 12 -12 16 2 4 -7 7 -20 7 -22 0 -23 -1 -7 -12z"/>
<path fill='pink' d="M1475 830 c3 -5 8 -10 11 -10 2 0 4 5 4 10 0 6 -5 10 -11 10 -5 0 -7
-4 -4 -10z"/>
<path fill='pink' d="M1060 826 c0 -2 8 -10 18 -17 15 -13 16 -12 3 4 -13 16 -21 21 -21
13z"/>
<path fill='pink' d="M1550 815 c7 -9 15 -13 17 -11 7 7 -7 26 -19 26 -6 0 -6 -6 2 -15z"/>
<path fill='pink' d="M1769 813 c-11 -15 -11 -16 0 -6 7 6 20 9 29 6 10 -4 13 -2 8 5 -10
17 -21 15 -37 -5z"/>
<path fill='pink' d="M1057 799 c12 -12 24 -21 27 -18 2 2 -8 13 -22 23 l-27 19 22 -24z"/>
<path fill='pink' d="M1293 813 c9 -14 -13 -31 -35 -28 -10 2 -18 -1 -18 -6 0 -9 21 -13
52 -11 12 1 16 -4 12 -16 -4 -12 -3 -13 3 -4 8 10 12 10 23 -3 7 -8 17 -15 23
-15 5 0 -1 9 -14 21 -13 12 -23 25 -22 30 2 4 -5 5 -15 2 -14 -6 -15 -4 -4 9
10 13 10 18 1 24 -7 4 -9 3 -6 -3z"/>
<path fill='pink' d="M1346 807 c3 -10 9 -15 12 -12 3 3 0 11 -7 18 -10 9 -11 8 -5 -6z"/>
<path fill='pink' d="M1405 810 c-4 -6 -12 -7 -18 -4 -7 4 -8 3 -4 -2 5 -5 14 -9 20 -9 7
-1 11 -7 9 -14 -1 -7 2 -10 8 -6 6 3 7 11 4 17 -5 7 -1 9 9 5 23 -9 21 0 -2
13 -14 7 -22 7 -26 0z"/>
<path fill='pink' d="M1582 815 c13 -14 -13 -37 -27 -25 -9 8 -15 8 -20 0 -3 -6 -11 -8
-16 -5 -5 4 -9 1 -9 -4 0 -14 17 -14 25 -1 9 14 27 1 19 -13 -4 -7 -4 -9 1 -5
4 4 13 4 19 -1 7 -6 16 -4 23 4 8 9 9 16 3 20 -6 4 -8 10 -5 15 3 5 0 12 -7
16 -7 4 -10 4 -6 -1z m8 -35 c0 -5 -5 -10 -11 -10 -5 0 -7 5 -4 10 3 6 8 10
11 10 2 0 4 -4 4 -10z"/>
<path fill='pink' d="M1985 811 c3 -5 1 -12 -5 -16 -6 -4 -8 -11 -4 -16 3 -5 0 -17 -7 -25
-7 -9 -14 -25 -14 -37 -2 -19 0 -18 22 7 18 22 21 31 13 47 -10 18 -6 24 14
20 5 -1 4 5 -4 13 -14 17 -25 22 -15 7z m-1 -66 c-4 -8 -11 -15 -16 -15 -6 0
-5 6 2 15 7 8 14 15 16 15 2 0 1 -7 -2 -15z"/>
<path fill='pink' d="M1200 805 c0 -2 6 -8 13 -14 10 -8 14 -7 14 2 0 8 -6 14 -14 14 -7 0
-13 -1 -13 -2z"/>
<path fill='pink' d="M1326 797 c3 -10 9 -15 12 -12 3 3 0 11 -7 18 -10 9 -11 8 -5 -6z"/>
<path fill='pink' d="M1610 806 c0 -2 8 -10 18 -17 15 -13 16 -12 3 4 -13 16 -21 21 -21
13z"/>
<path fill='pink' d="M1742 790 c7 -11 17 -20 22 -20 5 0 1 9 -9 20 -10 11 -20 20 -22 20
-2 0 2 -9 9 -20z"/>
<path fill='pink' d="M1826 795 c-14 -10 -22 -12 -27 -4 -4 7 -9 4 -13 -7 -4 -10 -4 -15 0
-12 4 4 16 3 27 -3 14 -8 18 -8 13 0 -4 6 -3 11 2 11 6 0 12 7 16 15 7 18 6
18 -18 0z"/>
<path fill='pink' d="M1865 800 c-3 -5 -1 -10 4 -10 6 0 11 5 11 10 0 6 -2 10 -4 10 -3 0
-8 -4 -11 -10z"/>
<path fill='pink' d="M1172 767 c27 -12 48 -27 48 -33 0 -7 7 -15 16 -18 26 -10 29 -7 8 9
-10 8 -14 15 -9 15 15 1 -77 49 -95 49 -8 0 6 -9 32 -22z"/>
<path fill='pink' d="M1465 779 c6 -9 3 -11 -8 -6 -24 9 -21 0 4 -14 15 -8 19 -8 15 0 -4
6 -2 11 4 11 6 0 13 -6 16 -13 3 -8 12 -14 21 -14 13 0 12 3 -3 14 -35 26 -57
36 -49 22z"/>
<path fill='pink' d="M1905 780 c-4 -6 -11 -8 -16 -5 -16 10 -10 -2 9 -16 9 -7 14 -9 10
-5 -4 5 -3 15 3 23 6 7 9 13 6 13 -3 0 -9 -5 -12 -10z"/>
<path fill='pink' d="M1670 766 c0 -2 8 -10 18 -17 15 -13 16 -12 3 4 -13 16 -21 21 -21
13z"/>
<path fill='pink' d="M1430 750 c0 -5 5 -10 11 -10 5 0 7 5 4 10 -3 6 -8 10 -11 10 -2 0
-4 -4 -4 -10z"/>
<path fill='pink' d="M1760 742 c0 -15 4 -20 16 -15 9 3 12 9 7 12 -4 3 -11 10 -15 15 -5
5 -8 0 -8 -12z"/>
<path fill='pink' d="M2020 752 c0 -4 -11 -20 -25 -35 -14 -15 -22 -27 -18 -27 4 0 21 16
36 35 15 19 23 35 17 35 -5 0 -10 -3 -10 -8z"/>
<path fill='pink' d="M1563 729 c-2 -23 3 -25 10 -4 4 8 3 16 -1 19 -4 3 -9 -4 -9 -15z"/>
<path fill='pink' d="M1641 747 c2 -2 20 -14 39 -26 l35 -23 -30 26 c-16 14 -34 26 -39 26
-5 0 -7 -1 -5 -3z"/>
<path fill='pink' d="M1861 734 c-15 -11 -19 -20 -13 -26 6 -6 8 -18 5 -27 -4 -11 -1 -10
11 4 11 13 14 15 11 4 -3 -9 2 -22 12 -30 16 -12 17 -12 6 2 -7 9 -10 18 -7
22 3 3 1 14 -5 24 -6 11 -11 13 -11 5 0 -7 -5 -10 -11 -6 -8 4 -4 13 12 25 30
23 22 25 -10 3z"/>
<path fill='pink' d="M1605 730 c-3 -5 -3 -10 1 -10 4 0 -3 -12 -17 -27 -13 -15 -17 -22
-8 -15 10 7 19 8 25 2 6 -6 10 3 10 25 0 38 -1 40 -11 25z"/>
<path fill='pink' d="M1803 734 c14 -14 -15 -34 -40 -28 -20 6 -24 3 -21 -11 1 -10 9 -20
16 -21 7 -1 8 0 2 3 -18 8 -11 25 8 19 11 -4 28 2 41 13 19 17 20 19 4 25 -10
4 -14 4 -10 0z"/>
<path fill='pink' d="M1175 720 c-4 -6 -10 -8 -15 -5 -5 3 -12 0 -16 -7 -4 -7 -4 -10 1 -6
4 4 14 3 22 -3 7 -6 13 -10 14 -8 8 41 6 49 -6 29z"/>
<path fill='pink' d="M1407 723 c-16 -4 -15 -7 9 -19 23 -12 30 -13 41 -1 12 12 12 14 -1
14 -8 0 -12 -5 -9 -10 3 -5 0 -7 -8 -5 -8 3 -13 11 -11 17 1 6 1 10 0 10 -2
-1 -11 -3 -21 -6z"/>
<path fill='pink' d="M1534 713 c1 -12 -5 -17 -19 -16 -11 1 -14 0 -7 -3 6 -3 9 -11 5 -17
-3 -7 3 -4 14 6 11 9 23 14 28 10 4 -5 2 2 -4 15 -14 27 -19 28 -17 5z"/>
<path fill='pink' d="M1896 721 c-4 -5 -2 -12 4 -16 6 -4 7 -11 4 -17 -4 -6 -2 -8 4 -5 10
7 11 32 0 42 -3 4 -9 2 -12 -4z"/>
<path fill='pink' d="M1293 705 c0 -8 4 -12 9 -9 5 3 6 10 3 15 -9 13 -12 11 -12 -6z"/>
<path fill='pink' d="M1324 694 c1 -7 6 -17 11 -21 4 -5 5 -2 0 6 -6 11 -4 13 8 8 10 -3
17 -3 17 2 0 5 -9 11 -19 14 -12 3 -18 0 -17 -9z"/>
<path fill='pink' d="M1673 695 c0 -8 7 -15 15 -15 12 0 12 3 2 15 -7 8 -13 15 -15 15 -1
0 -2 -7 -2 -15z"/>
<path fill='pink' d="M1818 683 c7 -3 16 -2 19 1 4 3 -2 6 -13 5 -11 0 -14 -3 -6 -6z"/>
<path fill='pink' d="M1391 666 c-7 -8 -8 -16 -4 -18 13 -7 33 -4 33 5 0 4 0 12 0 17 0 14
-16 12 -29 -4z m23 -4 c3 -5 -1 -9 -9 -9 -8 0 -12 4 -9 9 3 4 7 8 9 8 2 0 6
-4 9 -8z"/>
<path fill='pink' d="M1545 670 c-3 -5 -1 -10 4 -10 6 0 11 5 11 10 0 6 -2 10 -4 10 -3 0
-8 -4 -11 -10z"/>
<path fill='pink' d="M1634 668 c-4 -7 -4 -10 1 -6 4 4 14 0 22 -8 8 -8 19 -12 24 -8 6 3
16 0 24 -6 11 -9 15 -9 15 -1 0 10 -4 12 -36 15 -6 1 -18 7 -27 14 -12 11 -17
11 -23 0z"/>
<path fill='pink' d="M1777 664 c-8 -8 3 -34 15 -34 6 0 5 6 -2 15 -15 18 -1 19 23 1 16
-13 16 -14 -5 -30 -23 -16 -23 -16 5 -6 22 8 27 7 27 -6 0 -9 -5 -12 -12 -8
-7 4 -8 3 -4 -5 6 -8 0 -10 -18 -5 -14 3 -26 2 -26 -3 0 -11 41 -11 59 1 11 7
13 5 8 -8 -4 -10 -3 -15 4 -11 5 4 7 15 4 25 -3 10 -1 21 5 25 5 3 10 1 10 -6
0 -7 3 -9 7 -6 3 4 12 2 19 -4 8 -7 14 -7 19 1 4 6 3 10 -2 9 -17 -4 -43 14
-36 25 3 6 1 6 -8 -1 -16 -15 -33 -17 -24 -3 3 6 1 10 -5 10 -6 0 -8 4 -5 10
3 5 0 7 -8 4 -8 -3 -18 -1 -22 5 -7 12 -19 14 -28 5z"/>
<path fill='pink' d="M1585 648 c23 -14 67 -19 59 -7 -2 4 -13 6 -24 4 -11 -2 -22 0 -25 6
-4 5 -12 9 -18 9 -7 0 -3 -6 8 -12z"/>
<path fill='pink' d="M1490 629 c13 -23 22 -25 13 -2 -5 12 -3 14 8 8 8 -5 11 -4 6 0 -4 5
-14 10 -22 11 -12 2 -12 -2 -5 -17z"/>
<path fill='pink' d="M1326 623 c-6 -14 -5 -15 5 -6 7 7 10 15 7 18 -3 3 -9 -2 -12 -12z"/>
<path fill='pink' d="M1727 629 c-9 -5 -22 -7 -28 -3 -8 4 -8 0 0 -15 7 -11 14 -21 17 -21
3 0 2 5 -1 10 -3 6 1 10 10 10 10 0 13 -5 9 -12 -4 -7 -3 -8 5 -4 6 4 8 12 5
18 -4 6 0 14 7 19 20 12 -2 11 -24 -2z"/>
<path fill='pink' d="M1530 616 c0 -8 4 -17 9 -20 5 -4 7 3 4 14 -6 23 -13 26 -13 6z"/>
<path fill='pink' d="M1570 585 c6 -8 19 -11 27 -8 12 5 14 3 8 -7 -5 -9 -4 -11 4 -6 6 4
18 2 26 -4 10 -8 15 -9 15 -2 0 6 10 9 21 7 12 -3 19 -2 16 1 -3 3 -7 4 -10 2
-2 -1 -11 3 -20 11 -12 9 -17 10 -17 2 0 -7 -5 -9 -10 -6 -6 4 -24 11 -41 15
-26 8 -29 7 -19 -5z"/>
<path fill='pink' d="M1755 591 c-3 -5 -2 -12 3 -15 5 -3 9 1 9 9 0 17 -3 19 -12 6z"/>
<path fill='pink' d="M1709 561 c11 -7 11 -9 0 -13 -8 -3 -4 -7 10 -11 18 -4 21 -2 17 10
-5 13 -4 14 9 3 13 -11 14 -10 9 4 -4 9 -17 16 -33 16 -18 0 -22 -3 -12 -9z"/>
<path fill='pink' d="M1785 550 c-3 -6 1 -7 9 -4 18 7 21 14 7 14 -6 0 -13 -4 -16 -10z"/>
</g>
</svg>
